<svg version="1.0" xmlns="http://www.w3.org/2000/svg"
 width="1600px" height="70px" viewBox="0 0 1600 70"
 preserveAspectRatio="xMidYMid meet">
<g transform="translate(0.000000,70.000000) scale(0.100000,-0.100000)"
fill="#000000" fill-opacity=".5" stroke="none">
<path d="M0 670 c0 -33 6 -35 61 -18 30 9 45 8 67 -1 16 -8 84 -15 170 -17
188 -5 251 -10 285 -23 16 -6 50 -11 76 -11 26 0 74 -9 107 -21 32 -11 92 -25
133 -30 55 -6 82 -15 109 -35 46 -35 102 -37 198 -6 68 23 76 23 210 12 76 -6
150 -11 164 -12 14 0 58 -7 99 -15 40 -7 131 -14 201 -15 118 -1 131 1 186 26
70 32 123 29 193 -11 27 -16 70 -28 114 -34 39 -5 119 -27 177 -49 106 -40
159 -54 260 -70 30 -4 103 -27 163 -49 59 -23 129 -46 155 -50 69 -13 174 -6
213 15 28 15 55 18 149 16 63 -1 145 3 181 9 78 14 106 8 148 -27 29 -24 33
-25 125 -18 84 6 98 4 128 -13 18 -11 59 -23 91 -27 32 -3 74 -13 94 -21 19
-8 49 -15 65 -15 16 0 45 -7 65 -15 19 -8 45 -15 57 -15 35 0 137 -29 183 -52
l42 -21 67 22 c61 20 86 22 258 20 105 -1 207 2 228 6 50 10 139 -18 183 -56
32 -29 39 -30 87 -25 29 3 82 9 118 12 49 5 74 13 104 35 22 16 48 29 58 29
10 0 41 9 70 20 57 21 93 25 102 11 3 -5 29 -4 58 1 71 13 177 5 219 -17 67
-35 175 -24 302 29 26 12 67 16 135 16 53 0 108 0 122 0 14 1 41 -2 61 -6 27
-4 50 0 93 20 36 16 74 26 104 26 27 0 73 7 102 16 36 11 68 14 94 9 23 -4
120 -8 217 -10 167 -2 178 -3 220 -28 62 -35 170 -49 404 -52 142 -2 219 2
265 12 35 7 87 14 115 14 167 1 216 6 346 40 54 14 122 11 163 -6 31 -13 43
-14 71 -4 27 10 51 10 117 -1 46 -7 93 -16 104 -21 13 -5 43 -2 75 7 30 9 81
17 114 19 33 1 75 9 92 16 31 13 34 12 66 -19 18 -18 36 -30 39 -26 17 16 504
44 561 32 92 -19 287 -26 350 -12 34 7 84 13 110 14 26 0 76 10 110 22 43 15
88 22 149 23 47 0 92 6 100 12 27 21 143 41 303 52 61 4 116 11 123 15 23 14
194 24 258 15 47 -6 74 -5 113 7 28 8 79 19 113 23 35 5 96 18 135 30 40 12
94 21 120 21 69 -1 175 -26 185 -44 7 -13 14 -13 56 -1 76 22 332 18 406 -7
49 -16 67 -17 105 -9 26 6 96 8 161 5 261 -12 350 -10 378 8 34 23 102 23 173
1 36 -11 94 -17 174 -17 71 -1 169 -10 240 -23 66 -11 169 -24 228 -27 59 -3
118 -11 129 -17 29 -16 184 -4 281 21 87 22 213 40 278 41 241 0 365 -8 422
-27 30 -10 86 -18 132 -19 76 -2 114 -8 247 -41 69 -17 114 -18 174 -3 l44 11
0 214 0 214 -8000 0 -8000 0 0 -30z"/>
</g>
</svg>
