<svg width="34" height="34" viewBox="0 0 34 34" fill="none" xmlns="http://www.w3.org/2000/svg">
<path d="M29.4327 29.3675L27.6201 9.46688C27.5712 8.91862 27.1122 8.5 26.5618 8.5H23.3743V6.375C23.3743 4.6665 22.7113 3.06425 21.5107 1.86362C20.3292 0.68 18.6845 0 16.9993 0C13.4846 0 10.6243 2.86025 10.6243 6.375V8.5H7.43683C6.88646 8.5 6.42746 8.91862 6.37858 9.46688L4.57021 29.3654C4.46183 30.5533 4.86133 31.7369 5.66458 32.6166C6.46783 33.4964 7.61108 34 8.80321 34H25.1976C26.3876 34 27.5308 33.4964 28.3341 32.6188C29.1395 31.739 29.5368 30.5532 29.4327 29.3675ZM21.2493 8.5H12.7493V6.375C12.7493 4.03113 14.6555 2.125 16.9993 2.125C18.1256 2.125 19.2221 2.5755 20.0083 3.36387C20.8095 4.165 21.2493 5.23387 21.2493 6.375V8.5Z" fill="#F6C042"/>
</svg>
