<svg xmlns="http://www.w3.org/2000/svg" width="1600" height="119.887" viewBox="0 0 1600 119.887">
  <g id="Bottom" transform="translate(0 -2685.285)">
    <path id="Path_3" data-name="Path 3" d="M1594.421,2778.828h-12.5c-1.823-2-4.695-.16-6.731-1.929a6.144,6.144,0,0,0-4.527-1.12,15.107,15.107,0,0,1-8.628-2.017,5.764,5.764,0,0,0-6.206.067c-1.389.778-2.417,1.25-4.314.3a18.682,18.682,0,0,0-6.93-1.478c-2.505-.161-5.4-.114-7.547-2.206a3.65,3.65,0,0,0-2.22-.6c-7.527-.324-15.033-.02-22.6-.817-9.118-.961-18.326,1.524-27.558.8a1.877,1.877,0,0,0-.5,0,6.472,6.472,0,0,0-.9.236c-2.521.888-5.192,1.235-7.725,1.921-2.826.766-6.037.284-8.527,2.3a2.494,2.494,0,0,1-1.273.519c-4.191.364-8.383.76-12.582.991-2.658.146-5.331.048-8,.016a8.753,8.753,0,0,1-2.886-.266c-3.843-1.435-7.947-1.681-11.9-2.578-3.17-.719-6.658-.4-9.958-.075-3.49.345-6.687-1.106-10.09-1.092a16.024,16.024,0,0,1-5.137-.814c-3.558-1.148-7.431-1.26-11.126-2.12-1.563-.364-3.767.37-4.752-.476-1.965-1.685-2.833,1.347-4.434.481-.787-.425-1.959-.118-2.776-.515a6.183,6.183,0,0,0-5.09-.078,10.132,10.132,0,0,1-8.015-.067,21.381,21.381,0,0,0-11.515-2.407,36.7,36.7,0,0,1-4.5,0,8.451,8.451,0,0,0-6.657,2.1,4.467,4.467,0,0,1-2.6.879c-4.861.338-9.8-.668-14.6.98a3.934,3.934,0,0,1-2.849-.251c-2.49-1.366-5.763-.184-7.968-2.624-.432-.478-1.941-.2-2.88.033a22.014,22.014,0,0,1-11.788.122,12.592,12.592,0,0,0-6.71.264c-4.183,1.4-8.52,3.439-12.558-.481-.085-.083-.323-.012-.489-.01-2.741.042-5.235-1.253-8.089-1.1-5.814.32-11.66.156-17.49.064-2.047-.033-4.209.646-6.134-.907a2.793,2.793,0,0,0-2.427-.014c-3.415,1.685-7.409,1.131-10.807,2.9a1.28,1.28,0,0,1-1.965-.759c-.784-2.569-2.653-3.512-5.262-3.2-.657.08-1.539.287-1.964-.033-2.555-1.925-5.537-.205-8.091-1.038-2.84-.925-5.346-.629-8.228-.088-3.563.668-6.96,1.769-10.425,2.689-1.487.4-2.9,1.324-4.386,1.416-3.983.246-8.11-.558-11.664,2.066-3.521,0-6.811,1.159-10.18,1.952-1.074.253-2.66.388-3.343-.2-1.244-1.072-2.49-.714-3.73-.727q-8.247-.087-16.5-.005a14.149,14.149,0,0,0-3.668.724c-3.925,1.1-7.9,2.363-12.085,2.267-2.665-.061-5.332-.028-8-.007-3.032.024-6.181-.551-8.777,1.768a2.113,2.113,0,0,1-1.391.214c-3.588-.262-6.952,1.684-10.591,1.053a3.9,3.9,0,0,0-1.757.529c-2.731,1.05-5.412,2.259-8.2,3.114a8.776,8.776,0,0,1-4.322.167c-5.4-1.221-5.493-1.284-10.489.709a4.5,4.5,0,0,1-1.816.416c-2.634-.138-4.817,1.234-7.169,2.032-2.851.968-5.507,3.308-8.789,1.041a1.9,1.9,0,0,0-1.826.219c-1.117,1.255-2.482.647-3.727.71-2.7.138-5.518-.445-7.828,1.683-.388.358-1.212.274-1.84.335-7.573.738-15.038-1.006-22.58-.994a1.621,1.621,0,0,1-.5-.007,43.259,43.259,0,0,0-16.168-1.973c-5.53.264-11.042-.44-16.618.825-4.2.952-8.686-.062-13.079,1.026-3.381.837-7.042-.205-10.592,1.01-2.015.69-4.458-.182-6.586,1.045-.424.244-1.539-.3-2.093-.77-1.267-1.073-2.316-2.4-3.577-3.484-2.336-2-3.381-1.952-6.172-.155-2.544,1.637-5.207,2.286-8.129.868-.681-.33-1.837-.653-2.29-.321-2.372,1.742-5.359,1.442-7.97,2.533-2.291.958-5.258,2.4-7.872,1.3-2.691-1.139-5.865-.456-8.138-2.007-2.807-1.915-5.981-.019-8.844-1.72-1.513-.9-4.1-.467-5.992.823-2.023,1.378-3.865,1.215-6.251.224a56.653,56.653,0,0,0-7.591-2.177c-1.928-.494-3.754.836-5.576.863-3.581.052-6.946,1.745-10.591,1.157-.644-.1-1.394.588-2.122.829-2.2.727-4.389,1.866-6.63,1.993-2.491.141-5.088.789-7.665-.73-1.012-.6-2.967-.22-4.664.432-1.865.717-4.229,2.773-6.5.419-3.35.2-6.715-.481-10,1.221a14.018,14.018,0,0,1-7.251,1.772c-6.855-.435-13.7.545-20.611-.842-6.094-1.224-12.3,1.606-18.552.859-1.131-.135-2.475.225-3.384-.267-3.733-2.019-7.965-1.646-11.911-2.556-2.842-.655-5.332-1.161-7.884-2.872-2.5-1.675-5.578-3.99-9.142-1.4-.471.343-1.756-.357-2.634-.66-4.523-1.563-11.962-1.48-17.14-.514a21.411,21.411,0,0,1-9.281-.137c-2.254-.615-4.672-.277-6.871-1.488a3.107,3.107,0,0,0-4.019.88c-2.456-.565-3.848,2.085-6.17,2.016-2.5-.073-5-.016-7.5-.016a6.438,6.438,0,0,0-1.5.016c-2.565.632-5.363.877-7.593,2.126a33.262,33.262,0,0,1-5.177,2.053,10.2,10.2,0,0,1-9.51-.738c-.858-.529-1.323-.131-2.1.024-3.266.65-6.663,2.47-9.833,1.364-3.446-1.2-6.783-.45-10.136-.857a6.684,6.684,0,0,0-4.087,1.011c-1.77.962-3.8,1.477-5.5,2.369-2.721,1.43-5.607,1.844-8.436,2.587s-5.76,2.269-8.675.069a.946.946,0,0,0-.9.158c-2.005,2.134-3.926.359-5.738-.239-2.329-.767-4.486-2.693-6.781-2.8-7.132-.344-14.293-.067-21.443-.031-.817,1.571-1.672.234-2.184-.151-2.843-2.14-5.918-.838-7.915.59a14.085,14.085,0,0,1-6.569,2.248,15.031,15.031,0,0,0-9.615,4.645,4.468,4.468,0,0,1-3.87,1.592c-2.159-.129-4.332-.084-6.5-.008a6.872,6.872,0,0,0-2.759.55,20.85,20.85,0,0,1-5.387,1.545c-6.04,1.212-5.782,1.106-9.985-1.88-5.811-4.13-8.87-7.02-16.891-6.262-1.652.156-3.337-.066-4.995.05a10.1,10.1,0,0,0-4.211.7,7.272,7.272,0,0,1-5.785.1c-1.977-1.047-3.8-.757-5.674-.792-5.83-.108-11.665.054-17.495-.065a29.307,29.307,0,0,0-16.306,4.079c-2.535,1.557-4.511.878-6.4-.753a12.857,12.857,0,0,0-5.021-2.425c-2.843-.865-6.054-.926-8.507-2.3-2.962-1.662-5.843-1.491-8.869-1.59a3.8,3.8,0,0,1-1.338-.375c-3.8-1.654-7.614-3.247-11.916-2.609-3.7-2.319-7.837-2.917-12.069-3.551-1.6-.24-3.2-.156-4.767-.465-.906-.179-2.211-.24-2.6-.834-1.561-2.414-3.852-2.167-6.163-2.156-4.332.021-8.665-.027-13,.017-2.972.03-5.951.391-7.92-2.719a5.735,5.735,0,0,0-2.721-1.773c-2.352-.935-4.968-2.459-7.291-1.354-1.819.865-3.451.578-5.16.85-.918.146-1.81.449-2.715.676-4.961,1.245-9.866,2.219-14.861-.135a6.5,6.5,0,0,0-4.713-.438c-3.182,1.372-6.868.86-9.805,2.882-2.572-.494-4.11,2.258-6.674,2.045-2.482-.207-4.995-.045-7.494-.045-1.5,0-3,.018-4.5-.008a5.278,5.278,0,0,1-2.4-.2c-4.2-2.5-9.377-1.871-13.606-4.658-2.88-1.9-6.572-2.561-9.9-3.779a18.322,18.322,0,0,0-9.61-1.362,1.7,1.7,0,0,1-.917-.183c-3.507-2.046-7.563-1.862-11.327-2.844a60.308,60.308,0,0,1-9.236-3.025,90.723,90.723,0,0,0-10.7-4.331c-1.505-.449-3.347-.1-4.653-.82-3.281-1.8-6.723-1.9-10.268-1.793a30.48,30.48,0,0,1-5.663-2.012c-3.158-2.079-6.075-4.782-10.35-4a1.4,1.4,0,0,1-.882-.253c-2.78-1.749-5.236-.625-7.447,1.048a18.3,18.3,0,0,1-4.542,2.351,19.474,19.474,0,0,1-5.632.905c-1.876.182-3.714.8-5.59.937-6.892.513-13.666-1.7-20.578-.972a1.138,1.138,0,0,1-.5,0c-5.056-1.992-10.339-2.152-15.671-2.019a4.2,4.2,0,0,1-2.268-.512,11.378,11.378,0,0,0-6.9-1.492c-3.5.117-7.269.842-10.417-.21a17.6,17.6,0,0,0-8.138-.572A35.689,35.689,0,0,0,121,2753.13c-3.614,1.358-7.417,2.626-11.385,2.672-3.764.044-7.23-.972-9.9-3.8-.88-.933-2.037-.832-2.982-1.27-2.647-1.229-5.514-1.131-8.223-1.871-1.977-.539-3.988.228-6.182-.807a43.093,43.093,0,0,0-5.679-1.914c-4.059-1.227-8.2-2.526-12.552-2.3a14.988,14.988,0,0,1-5-.417c-1.447-.53-2.922-1.584-4.333-1.5-5.758.324-11.4-.731-17.085-1.124-1.392-.1-2.569.981-3.569.87-1.319-.145-2.619-.829-4.1-.882-2.71-.1-5.532.722-8.112-.912a2.11,2.11,0,0,0-1.935,0c-2.245,1.8-4.093.686-6-.561a2.551,2.551,0,0,0-1.3-.464c-4.323,0-8.733-.512-12.668,1.979v2.5c3.935-2.491,8.345-1.981,12.668-1.979a2.551,2.551,0,0,1,1.3.464c1.9,1.247,3.752,2.36,6,.561a2.11,2.11,0,0,1,1.935,0c2.58,1.634,5.4.815,8.112.912,1.482.053,2.782.737,4.1.882,1,.111,2.177-.967,3.569-.87,5.69.393,11.327,1.448,17.085,1.124,1.411-.08,2.886.974,4.333,1.5a14.988,14.988,0,0,0,5,.417c4.354-.228,8.493,1.071,12.552,2.3a43.093,43.093,0,0,1,5.679,1.914c2.194,1.035,4.205.268,6.182.807,2.709.74,5.576.642,8.223,1.871.945.438,2.1.337,2.982,1.27,2.668,2.83,6.134,3.846,9.9,3.8,3.968-.046,7.771-1.314,11.385-2.672a35.689,35.689,0,0,1,7.564-2.114,17.6,17.6,0,0,1,8.138.572c3.148,1.052,6.921.327,10.417.21a11.378,11.378,0,0,1,6.9,1.492,4.2,4.2,0,0,0,2.268.512c5.332-.133,10.615.027,15.671,2.019a1.138,1.138,0,0,0,.5,0c6.912-.727,13.686,1.485,20.578.972,1.876-.139,3.714-.755,5.59-.937a19.474,19.474,0,0,0,5.632-.905,18.3,18.3,0,0,0,4.542-2.351c2.211-1.673,4.667-2.8,7.447-1.048a1.4,1.4,0,0,0,.882.253c4.275-.783,7.192,1.92,10.35,4a30.48,30.48,0,0,0,5.663,2.012c3.545-.109,6.987,0,10.268,1.793,1.306.715,3.148.371,4.653.82a90.723,90.723,0,0,1,10.7,4.331A60.308,60.308,0,0,0,268,2770.29c3.764.982,7.82.8,11.327,2.844a1.7,1.7,0,0,0,.917.183,18.322,18.322,0,0,1,9.61,1.362c3.328,1.218,7.02,1.882,9.9,3.779,4.229,2.787,9.408,2.155,13.606,4.658a5.278,5.278,0,0,0,2.4.2c1.5.026,3,.008,4.5.008,2.5,0,5.012-.162,7.494.045,2.564.213,4.1-2.539,6.674-2.045,2.937-2.022,6.623-1.51,9.805-2.882a6.5,6.5,0,0,1,4.713.438c4.995,2.354,9.9,1.38,14.861.135.9-.227,1.8-.53,2.715-.676,1.709-.272,3.341.015,5.16-.85,2.323-1.1,4.939.419,7.291,1.354a5.735,5.735,0,0,1,2.721,1.773c1.969,3.11,4.948,2.749,7.92,2.719,4.331-.044,8.664,0,13-.017,2.311-.011,4.6-.258,6.163,2.156.384.594,1.689.655,2.6.834,1.565.309,3.169.225,4.767.465,4.232.634,8.371,1.232,12.069,3.551,4.3-.638,8.114.955,11.916,2.609a3.8,3.8,0,0,0,1.338.375c3.026.1,5.907-.072,8.869,1.59,2.453,1.375,5.664,1.436,8.507,2.3a12.857,12.857,0,0,1,5.021,2.425c1.888,1.631,3.864,2.31,6.4.753a29.307,29.307,0,0,1,16.306-4.079c5.83.119,11.665-.043,17.495.065,1.874.035,3.7-.255,5.674.792a7.272,7.272,0,0,0,5.785-.1,10.1,10.1,0,0,1,4.211-.7c1.658-.116,3.343.106,4.995-.05,8.021-.758,11.08,2.132,16.891,6.262,4.2,2.986,3.945,3.092,9.985,1.88a20.85,20.85,0,0,0,5.387-1.545,6.872,6.872,0,0,1,2.759-.55c2.164-.076,4.337-.121,6.5.008a4.468,4.468,0,0,0,3.87-1.592,15.031,15.031,0,0,1,9.615-4.645,14.085,14.085,0,0,0,6.569-2.248c2-1.428,5.072-2.73,7.915-.59.512.385,1.367,1.722,2.184.151,7.15-.036,14.311-.313,21.443.031,2.295.111,4.452,2.037,6.781,2.8,1.812.6,3.733,2.373,5.738.239a.946.946,0,0,1,.9-.158c2.915,2.2,5.839.675,8.675-.069s5.715-1.157,8.436-2.587c1.7-.892,3.73-1.407,5.5-2.369a6.684,6.684,0,0,1,4.087-1.011c3.353.407,6.69-.347,10.136.857,3.17,1.106,6.567-.714,9.833-1.364.776-.155,1.241-.553,2.1-.024a10.2,10.2,0,0,0,9.51.738,33.262,33.262,0,0,0,5.177-2.053c2.23-1.249,5.028-1.494,7.593-2.126a6.438,6.438,0,0,1,1.5-.016c2.5,0,5-.057,7.5.016,2.322.069,3.714-2.581,6.17-2.016a3.107,3.107,0,0,1,4.019-.88c2.2,1.211,4.617.873,6.871,1.488a21.411,21.411,0,0,0,9.281.137c5.178-.966,12.617-1.049,17.14.514.878.3,2.163,1,2.634.66,3.564-2.594,6.644-.279,9.142,1.4,2.552,1.711,5.042,2.217,7.884,2.872,3.946.91,8.178.537,11.911,2.556.909.492,2.253.132,3.384.267,6.255.747,12.458-2.083,18.552-.859,6.908,1.387,13.756.407,20.611.842a14.018,14.018,0,0,0,7.251-1.772c3.287-1.7,6.652-1.025,10-1.221,2.273,2.354,4.637.3,6.5-.419,1.7-.652,3.652-1.028,4.664-.432,2.577,1.519,5.174.871,7.665.73,2.241-.127,4.429-1.266,6.63-1.993.728-.241,1.478-.933,2.122-.829,3.645.588,7.01-1.1,10.591-1.157,1.822-.027,3.648-1.357,5.576-.863a56.653,56.653,0,0,1,7.591,2.177c2.386.991,4.228,1.154,6.251-.224,1.9-1.29,4.479-1.721,5.992-.823,2.863,1.7,6.037-.2,8.844,1.72,2.273,1.551,5.447.868,8.138,2.007,2.614,1.107,5.581-.339,7.872-1.3,2.611-1.091,5.6-.791,7.97-2.533.453-.332,1.609-.009,2.29.321,2.922,1.418,5.585.769,8.129-.868,2.791-1.8,3.836-1.85,6.172.155,1.261,1.082,2.31,2.411,3.577,3.484.554.468,1.669,1.014,2.093.77,2.128-1.227,4.571-.355,6.586-1.045,3.55-1.215,7.211-.173,10.592-1.01,4.393-1.088,8.884-.074,13.079-1.026,5.576-1.265,11.088-.561,16.618-.825a43.259,43.259,0,0,1,16.168,1.973,1.621,1.621,0,0,0,.5.007c7.542-.012,15.007,1.732,22.58.994.628-.061,1.452.023,1.84-.335,2.31-2.128,5.124-1.545,7.828-1.683,1.245-.063,2.61.545,3.727-.71a1.9,1.9,0,0,1,1.826-.219c3.282,2.267,5.938-.073,8.789-1.041,2.352-.8,4.535-2.17,7.169-2.032a4.5,4.5,0,0,0,1.816-.416c5-1.993,5.085-1.93,10.489-.709a8.776,8.776,0,0,0,4.322-.167c2.789-.855,5.47-2.064,8.2-3.114a3.9,3.9,0,0,1,1.757-.529c3.639.631,7-1.315,10.591-1.053a2.113,2.113,0,0,0,1.391-.214c2.6-2.319,5.745-1.744,8.777-1.768,2.666-.021,5.333-.054,8,.007,4.188.1,8.16-1.167,12.085-2.267a14.149,14.149,0,0,1,3.668-.724q8.247-.069,16.5.005c1.24.013,2.486-.345,3.73.727.683.588,2.269.453,3.343.2,3.369-.793,6.659-1.952,10.18-1.952,3.554-2.624,7.681-1.82,11.664-2.066,1.484-.092,2.9-1.021,4.386-1.416,3.465-.92,6.862-2.021,10.425-2.689,2.882-.541,5.388-.837,8.228.088,2.554.833,5.536-.887,8.091,1.038.425.32,1.307.113,1.964.033,2.609-.316,4.478.627,5.262,3.2a1.28,1.28,0,0,0,1.965.759c3.4-1.765,7.392-1.211,10.807-2.9a2.793,2.793,0,0,1,2.427.014c1.925,1.553,4.087.874,6.134.907,5.83.092,11.676.256,17.49-.064,2.854-.157,5.348,1.138,8.089,1.1.166,0,.4-.073.489.01,4.038,3.92,8.375,1.879,12.558.481a12.592,12.592,0,0,1,6.71-.264,22.014,22.014,0,0,0,11.788-.122c.939-.229,2.448-.511,2.88-.033,2.2,2.44,5.478,1.258,7.968,2.624a3.934,3.934,0,0,0,2.849.251c4.8-1.648,9.737-.642,14.6-.98a4.467,4.467,0,0,0,2.6-.879,8.451,8.451,0,0,1,6.657-2.1,36.7,36.7,0,0,0,4.5,0,21.381,21.381,0,0,1,11.515,2.407,10.132,10.132,0,0,0,8.015.067,6.183,6.183,0,0,1,5.09.078c.817.4,1.989.09,2.776.515,1.6.866,2.469-2.166,4.434-.481.985.846,3.189.112,4.752.476,3.695.86,7.568.972,11.126,2.12a16.024,16.024,0,0,0,5.137.814c3.4-.014,6.6,1.437,10.09,1.092,3.3-.327,6.788-.644,9.958.075,3.953.9,8.057,1.143,11.9,2.578a8.753,8.753,0,0,0,2.886.266c2.666.032,5.339.13,8-.016,4.2-.231,8.391-.627,12.582-.991a2.494,2.494,0,0,0,1.273-.519c2.49-2.017,5.7-1.535,8.527-2.3,2.533-.686,5.2-1.033,7.725-1.921a6.472,6.472,0,0,1,.9-.236,1.877,1.877,0,0,1,.5,0c9.232.727,18.44-1.758,27.558-.8,7.567.8,15.073.493,22.6.817a3.65,3.65,0,0,1,2.22.6c2.145,2.092,5.042,2.045,7.547,2.206a18.682,18.682,0,0,1,6.93,1.478c1.9.946,2.925.474,4.314-.3a5.764,5.764,0,0,1,6.206-.067,15.107,15.107,0,0,0,8.628,2.017,6.144,6.144,0,0,1,4.527,1.12c2.036,1.769,4.908-.072,6.731,1.929h12.5c1.584-1.871,3.721-.656,5.579-1v-2.5C1598.142,2778.172,1596.005,2776.957,1594.421,2778.828Z" fill="#fff"/>
    <path id="Path_4" data-name="Path 4" d="M0,2740.828c3.935-2.491,8.345-1.981,12.668-1.979a2.551,2.551,0,0,1,1.3.464c1.9,1.247,3.752,2.36,6,.561a2.11,2.11,0,0,1,1.935,0c2.58,1.634,5.4.815,8.112.912,1.482.053,2.782.737,4.1.882,1,.111,2.177-.967,3.569-.87,5.69.393,11.327,1.448,17.085,1.124,1.411-.079,2.886.974,4.333,1.5a15.014,15.014,0,0,0,5,.417c4.354-.228,8.493,1.071,12.552,2.3a43.093,43.093,0,0,1,5.679,1.914c2.194,1.035,4.205.268,6.182.808,2.709.739,5.576.641,8.223,1.87.945.438,2.1.337,2.982,1.27,2.668,2.83,6.134,3.846,9.9,3.8,3.968-.046,7.771-1.314,11.385-2.672a35.689,35.689,0,0,1,7.564-2.114,17.62,17.62,0,0,1,8.138.572c3.148,1.052,6.921.326,10.417.21a11.378,11.378,0,0,1,6.9,1.492,4.2,4.2,0,0,0,2.268.512c5.332-.133,10.615.027,15.671,2.019a1.138,1.138,0,0,0,.5,0c6.912-.727,13.686,1.485,20.578.972,1.876-.139,3.714-.755,5.59-.937a19.474,19.474,0,0,0,5.632-.905,18.3,18.3,0,0,0,4.542-2.351c2.211-1.673,4.667-2.8,7.447-1.048a1.4,1.4,0,0,0,.882.253c4.275-.783,7.192,1.919,10.35,4a30.48,30.48,0,0,0,5.663,2.012c3.545-.108,6.987,0,10.268,1.793,1.306.715,3.148.371,4.653.82a90.891,90.891,0,0,1,10.7,4.331A60.308,60.308,0,0,0,268,2767.79c3.764.982,7.82.8,11.327,2.844a1.711,1.711,0,0,0,.917.184,18.309,18.309,0,0,1,9.61,1.361c3.328,1.218,7.02,1.882,9.9,3.779,4.229,2.787,9.408,2.155,13.606,4.658a5.278,5.278,0,0,0,2.4.2c1.5.027,3,.008,4.5.008,2.5,0,5.012-.162,7.494.044,2.564.214,4.1-2.538,6.674-2.044,2.937-2.022,6.623-1.51,9.805-2.882a6.5,6.5,0,0,1,4.713.438c4.995,2.354,9.9,1.38,14.861.135.9-.227,1.8-.53,2.715-.676,1.709-.272,3.341.015,5.16-.85,2.323-1.1,4.939.419,7.291,1.354a5.735,5.735,0,0,1,2.721,1.773c1.969,3.11,4.948,2.75,7.92,2.719,4.331-.044,8.664,0,13-.017,2.311-.011,4.6-.258,6.163,2.156.384.594,1.689.655,2.6.834,1.565.309,3.169.225,4.767.465,4.232.634,8.371,1.232,12.069,3.551,4.3-.638,8.114.955,11.916,2.609a3.8,3.8,0,0,0,1.338.375c3.026.1,5.907-.072,8.869,1.59,2.453,1.375,5.664,1.436,8.507,2.3a12.857,12.857,0,0,1,5.021,2.425c1.888,1.631,3.864,2.31,6.4.753a29.307,29.307,0,0,1,16.306-4.079c5.83.119,11.665-.043,17.495.065,1.874.035,3.7-.255,5.674.792a7.272,7.272,0,0,0,5.785-.1,10.1,10.1,0,0,1,4.211-.7c1.658-.116,3.343.106,4.995-.05,8.021-.758,11.08,2.132,16.891,6.262,4.2,2.986,3.945,3.092,9.985,1.88a20.85,20.85,0,0,0,5.387-1.545,6.872,6.872,0,0,1,2.759-.55c2.164-.076,4.337-.121,6.5.008a4.468,4.468,0,0,0,3.87-1.592,15.031,15.031,0,0,1,9.615-4.645,14.085,14.085,0,0,0,6.569-2.248c2-1.428,5.072-2.73,7.915-.589.512.384,1.367,1.721,2.184.15,7.15-.036,14.311-.313,21.443.031,2.295.111,4.452,2.037,6.781,2.8,1.812.6,3.733,2.373,5.738.239a.949.949,0,0,1,.9-.158c2.915,2.2,5.839.675,8.675-.069s5.715-1.157,8.436-2.587c1.7-.892,3.73-1.407,5.5-2.369a6.684,6.684,0,0,1,4.087-1.011c3.353.407,6.69-.347,10.136.857,3.17,1.106,6.567-.714,9.833-1.364.776-.155,1.241-.553,2.1-.023a10.206,10.206,0,0,0,9.51.737,33.262,33.262,0,0,0,5.177-2.053c2.23-1.249,5.028-1.494,7.593-2.126a6.438,6.438,0,0,1,1.5-.016c2.5,0,5-.057,7.5.016,2.322.069,3.714-2.581,6.17-2.016a3.107,3.107,0,0,1,4.019-.88c2.2,1.211,4.617.873,6.871,1.488a21.411,21.411,0,0,0,9.281.137c5.178-.966,12.617-1.049,17.14.514.878.3,2.163,1,2.634.66,3.564-2.594,6.644-.279,9.142,1.4,2.552,1.711,5.042,2.217,7.884,2.872,3.946.91,8.178.537,11.911,2.556.909.492,2.253.132,3.384.267,6.255.747,12.458-2.083,18.552-.859,6.908,1.387,13.756.407,20.611.842a14.018,14.018,0,0,0,7.251-1.772c3.287-1.7,6.652-1.025,10-1.221,2.273,2.354,4.637.3,6.5-.418,1.7-.653,3.652-1.029,4.664-.433,2.577,1.519,5.174.871,7.665.73,2.241-.127,4.429-1.266,6.63-1.993.728-.241,1.478-.933,2.122-.829,3.645.588,7.01-1.1,10.591-1.157,1.822-.027,3.648-1.357,5.576-.863a56.653,56.653,0,0,1,7.591,2.177c2.386.991,4.228,1.154,6.251-.224,1.9-1.29,4.479-1.721,5.992-.822,2.863,1.7,6.037-.2,8.844,1.719,2.273,1.551,5.447.868,8.138,2.008,2.614,1.106,5.581-.34,7.872-1.3,2.611-1.091,5.6-.791,7.97-2.533.453-.332,1.609-.009,2.29.321,2.922,1.418,5.585.769,8.129-.868,2.791-1.8,3.836-1.85,6.172.154,1.261,1.083,2.31,2.412,3.577,3.485.554.468,1.669,1.014,2.093.77,2.128-1.227,4.571-.355,6.586-1.045,3.55-1.215,7.211-.173,10.592-1.01,4.393-1.088,8.884-.074,13.079-1.026,5.576-1.265,11.088-.561,16.618-.825a43.259,43.259,0,0,1,16.168,1.973,1.621,1.621,0,0,0,.5.007c7.542-.012,15.007,1.731,22.58.994.628-.061,1.452.023,1.84-.335,2.31-2.128,5.124-1.545,7.828-1.683,1.245-.063,2.61.546,3.727-.71a1.9,1.9,0,0,1,1.826-.219c3.282,2.267,5.938-.073,8.789-1.041,2.352-.8,4.535-2.17,7.169-2.032a4.518,4.518,0,0,0,1.816-.416c5-1.993,5.085-1.93,10.489-.709a8.776,8.776,0,0,0,4.322-.167c2.789-.855,5.47-2.064,8.2-3.114a3.9,3.9,0,0,1,1.757-.529c3.639.63,7-1.315,10.591-1.053a2.113,2.113,0,0,0,1.391-.214c2.6-2.319,5.745-1.744,8.777-1.768,2.666-.021,5.333-.054,8,.007,4.188.1,8.16-1.167,12.085-2.267a14.149,14.149,0,0,1,3.668-.724q8.247-.069,16.5.005c1.24.013,2.486-.345,3.73.727.683.588,2.269.453,3.343.2,3.369-.793,6.659-1.952,10.18-1.952,3.554-2.624,7.681-1.82,11.664-2.066,1.484-.092,2.9-1.021,4.386-1.416,3.465-.92,6.862-2.021,10.425-2.689,2.882-.541,5.388-.837,8.228.089,2.554.832,5.536-.888,8.091,1.037.425.32,1.307.112,1.964.033,2.609-.316,4.478.627,5.262,3.2a1.28,1.28,0,0,0,1.965.759c3.4-1.765,7.392-1.211,10.807-2.9a2.793,2.793,0,0,1,2.427.014c1.925,1.553,4.087.874,6.134.907,5.83.092,11.676.256,17.49-.064,2.854-.157,5.348,1.138,8.089,1.1.166,0,.4-.073.489.01,4.038,3.92,8.375,1.878,12.558.481a12.592,12.592,0,0,1,6.71-.264,22.014,22.014,0,0,0,11.788-.122c.939-.229,2.448-.511,2.88-.033,2.2,2.44,5.478,1.258,7.968,2.624a3.934,3.934,0,0,0,2.849.251c4.8-1.648,9.737-.642,14.6-.98a4.467,4.467,0,0,0,2.6-.879,8.455,8.455,0,0,1,6.657-2.1,36.7,36.7,0,0,0,4.5,0,21.381,21.381,0,0,1,11.515,2.407,10.127,10.127,0,0,0,8.015.067,6.183,6.183,0,0,1,5.09.078c.817.4,1.989.09,2.776.515,1.6.866,2.469-2.165,4.434-.481.985.846,3.189.112,4.752.476,3.695.86,7.568.972,11.126,2.12a16.053,16.053,0,0,0,5.137.815c3.4-.015,6.6,1.436,10.09,1.091,3.3-.327,6.788-.644,9.958.075,3.953.9,8.057,1.143,11.9,2.578a8.753,8.753,0,0,0,2.886.266c2.666.032,5.339.13,8-.016,4.2-.231,8.391-.627,12.582-.992a2.484,2.484,0,0,0,1.273-.518c2.49-2.016,5.7-1.535,8.527-2.3,2.533-.687,5.2-1.034,7.725-1.922a6.472,6.472,0,0,1,.9-.236,1.919,1.919,0,0,1,.5,0c9.232.727,18.44-1.758,27.558-.8,7.567.8,15.073.493,22.6.818a3.636,3.636,0,0,1,2.22.6c2.145,2.091,5.042,2.044,7.547,2.205a18.682,18.682,0,0,1,6.93,1.478c1.9.946,2.925.474,4.314-.3a5.762,5.762,0,0,1,6.206-.066,15.115,15.115,0,0,0,8.628,2.016,6.144,6.144,0,0,1,4.527,1.12c2.036,1.769,4.908-.071,6.731,1.929h12.5c1.584-1.871,3.721-.656,5.579-1v-92.543H0Z" fill="rgba(0,0,0,0.79)" opacity="0.8"/>
  </g>
</svg>
