<svg xmlns="http://www.w3.org/2000/svg" width="1600" height="119.887" viewBox="0 0 1600 119.887">
  <g id="Bottom" transform="translate(0 -3214.59)">
    <path id="Path_8" data-name="Path 8" d="M1594.421,3308.133h-12.5c-1.823-2-4.695-.16-6.731-1.929a6.138,6.138,0,0,0-4.527-1.119,15.125,15.125,0,0,1-8.628-2.017,5.764,5.764,0,0,0-6.206.066c-1.389.779-2.417,1.25-4.314.3a18.687,18.687,0,0,0-6.93-1.479c-2.505-.16-5.4-.113-7.547-2.205a3.636,3.636,0,0,0-2.22-.6c-7.527-.325-15.033-.021-22.6-.818-9.118-.96-18.326,1.524-27.558.8a1.847,1.847,0,0,0-.5,0,6.468,6.468,0,0,0-.9.235c-2.521.888-5.192,1.236-7.725,1.922-2.826.765-6.037.284-8.527,2.3a2.486,2.486,0,0,1-1.273.519c-4.191.364-8.383.76-12.582.991-2.658.146-5.331.048-8,.016a8.72,8.72,0,0,1-2.886-.266c-3.843-1.435-7.947-1.68-11.9-2.577-3.17-.72-6.658-.4-9.958-.076-3.49.345-6.687-1.106-10.09-1.091a16.066,16.066,0,0,1-5.137-.815c-3.558-1.148-7.431-1.259-11.126-2.12-1.563-.364-3.767.37-4.752-.475-1.965-1.685-2.833,1.346-4.434.481-.787-.426-1.959-.119-2.776-.515a6.178,6.178,0,0,0-5.09-.079,10.128,10.128,0,0,1-8.015-.067,21.4,21.4,0,0,0-11.515-2.407,36.652,36.652,0,0,1-4.5.005,8.451,8.451,0,0,0-6.657,2.1,4.475,4.475,0,0,1-2.6.88c-4.861.338-9.8-.669-14.6.98a3.945,3.945,0,0,1-2.849-.251c-2.49-1.367-5.763-.184-7.968-2.624-.432-.478-1.941-.2-2.88.033a22.033,22.033,0,0,1-11.788.122,12.584,12.584,0,0,0-6.71.264c-4.183,1.4-8.52,3.439-12.558-.481-.085-.084-.323-.013-.489-.01-2.741.041-5.235-1.254-8.089-1.1-5.814.321-11.66.156-17.49.064-2.047-.032-4.209.647-6.134-.906a2.787,2.787,0,0,0-2.427-.014c-3.415,1.685-7.409,1.131-10.807,2.9a1.281,1.281,0,0,1-1.965-.76c-.784-2.569-2.653-3.511-5.262-3.2-.657.08-1.539.287-1.964-.033-2.555-1.925-5.537-.2-8.091-1.037-2.84-.926-5.346-.63-8.228-.089-3.563.669-6.96,1.769-10.425,2.689-1.487.4-2.9,1.324-4.386,1.416-3.983.246-8.11-.557-11.664,2.066-3.521,0-6.811,1.16-10.18,1.953-1.074.252-2.66.387-3.343-.2-1.244-1.072-2.49-.714-3.73-.727q-8.247-.087-16.5,0a14.11,14.11,0,0,0-3.668.725c-3.925,1.1-7.9,2.362-12.085,2.267-2.665-.061-5.332-.028-8-.008-3.032.024-6.181-.55-8.777,1.768a2.112,2.112,0,0,1-1.391.214c-3.588-.262-6.952,1.684-10.591,1.053a3.913,3.913,0,0,0-1.757.53c-2.731,1.049-5.412,2.258-8.2,3.114a8.787,8.787,0,0,1-4.322.166c-5.4-1.221-5.493-1.283-10.489.709a4.519,4.519,0,0,1-1.816.417c-2.634-.139-4.817,1.233-7.169,2.031-2.851.968-5.507,3.308-8.789,1.042a1.892,1.892,0,0,0-1.826.218c-1.117,1.256-2.482.647-3.727.711-2.7.137-5.518-.446-7.828,1.682-.388.358-1.212.275-1.84.336-7.573.737-15.038-1.006-22.58-.995a1.622,1.622,0,0,1-.5-.006,43.26,43.26,0,0,0-16.168-1.974c-5.53.265-11.042-.44-16.618.825-4.2.952-8.686-.061-13.079,1.026-3.381.837-7.042-.2-10.592,1.01-2.015.69-4.458-.182-6.586,1.045-.424.244-1.539-.3-2.093-.77-1.267-1.073-2.316-2.4-3.577-3.484-2.336-2-3.381-1.952-6.172-.155-2.544,1.637-5.207,2.286-8.129.869-.681-.331-1.837-.654-2.29-.321-2.372,1.742-5.359,1.441-7.97,2.533-2.291.957-5.258,2.4-7.872,1.3-2.691-1.14-5.865-.457-8.138-2.008-2.807-1.914-5.981-.019-8.844-1.719-1.513-.9-4.1-.468-5.992.822-2.023,1.378-3.865,1.215-6.251.224a56.8,56.8,0,0,0-7.591-2.177c-1.928-.494-3.754.836-5.576.863-3.581.053-6.946,1.746-10.591,1.157-.644-.1-1.394.588-2.122.829-2.2.727-4.389,1.866-6.63,1.993-2.491.141-5.088.789-7.665-.729-1.012-.6-2.967-.221-4.664.432-1.865.716-4.229,2.772-6.5.418-3.35.2-6.715-.481-10,1.221a14.006,14.006,0,0,1-7.251,1.772c-6.855-.435-13.7.546-20.611-.842-6.094-1.224-12.3,1.606-18.552.859-1.131-.135-2.475.225-3.384-.266-3.733-2.02-7.965-1.647-11.911-2.556-2.842-.655-5.332-1.162-7.884-2.873-2.5-1.675-5.578-3.99-9.142-1.4-.471.342-1.756-.358-2.634-.661-4.523-1.563-11.962-1.479-17.14-.513a21.441,21.441,0,0,1-9.281-.137c-2.254-.616-4.672-.278-6.871-1.489a3.107,3.107,0,0,0-4.019.88c-2.456-.564-3.848,2.085-6.17,2.017-2.5-.074-5-.017-7.5-.017a6.438,6.438,0,0,0-1.5.017c-2.565.632-5.363.876-7.593,2.125a33.046,33.046,0,0,1-5.177,2.053,10.2,10.2,0,0,1-9.51-.737c-.858-.53-1.323-.131-2.1.023-3.266.65-6.663,2.471-9.833,1.364-3.446-1.2-6.783-.45-10.136-.857a6.681,6.681,0,0,0-4.087,1.011c-1.77.962-3.8,1.477-5.5,2.369-2.721,1.431-5.607,1.844-8.436,2.587s-5.76,2.27-8.675.069a.95.95,0,0,0-.9.158c-2.005,2.134-3.926.359-5.738-.238-2.329-.768-4.486-2.694-6.781-2.8-7.132-.344-14.293-.067-21.443-.031-.817,1.572-1.672.235-2.184-.15-2.843-2.141-5.918-.838-7.915.589a14.071,14.071,0,0,1-6.569,2.249,15.025,15.025,0,0,0-9.615,4.644,4.465,4.465,0,0,1-3.87,1.592c-2.159-.128-4.332-.084-6.5-.007a6.871,6.871,0,0,0-2.759.549,20.812,20.812,0,0,1-5.387,1.545c-6.04,1.212-5.782,1.107-9.985-1.88-5.811-4.129-8.87-7.019-16.891-6.261-1.652.156-3.337-.066-4.995.049a10.11,10.11,0,0,0-4.211.7,7.267,7.267,0,0,1-5.785.1c-1.977-1.047-3.8-.757-5.674-.791-5.83-.108-11.665.053-17.495-.066a29.307,29.307,0,0,0-16.306,4.079c-2.535,1.557-4.511.878-6.4-.753a12.838,12.838,0,0,0-5.021-2.424c-2.843-.866-6.054-.926-8.507-2.3-2.962-1.661-5.843-1.491-8.869-1.59a3.779,3.779,0,0,1-1.338-.374c-3.8-1.655-7.614-3.247-11.916-2.61-3.7-2.319-7.837-2.917-12.069-3.551-1.6-.24-3.2-.156-4.767-.465-.906-.179-2.211-.24-2.6-.834-1.561-2.414-3.852-2.167-6.163-2.156-4.332.021-8.665-.027-13,.017-2.972.031-5.951.391-7.92-2.719a5.735,5.735,0,0,0-2.721-1.773c-2.352-.935-4.968-2.459-7.291-1.354-1.819.865-3.451.578-5.16.85-.918.146-1.81.45-2.715.677-4.961,1.244-9.866,2.218-14.861-.136a6.491,6.491,0,0,0-4.713-.437c-3.182,1.371-6.868.86-9.805,2.881-2.572-.494-4.11,2.258-6.674,2.045-2.482-.207-4.995-.045-7.494-.045-1.5,0-3,.019-4.5-.007a5.274,5.274,0,0,1-2.4-.205c-4.2-2.5-9.377-1.871-13.606-4.658-2.88-1.9-6.572-2.561-9.9-3.779a18.309,18.309,0,0,0-9.61-1.361,1.715,1.715,0,0,1-.917-.183c-3.507-2.047-7.563-1.862-11.327-2.844a60.418,60.418,0,0,1-9.236-3.026,90.719,90.719,0,0,0-10.7-4.33c-1.505-.449-3.347-.106-4.653-.821-3.281-1.795-6.723-1.9-10.268-1.793a30.458,30.458,0,0,1-5.663-2.011c-3.158-2.08-6.075-4.783-10.35-4a1.4,1.4,0,0,1-.882-.253c-2.78-1.749-5.236-.624-7.447,1.048a18.288,18.288,0,0,1-4.542,2.351,19.441,19.441,0,0,1-5.632.905c-1.876.182-3.714.8-5.59.938-6.892.512-13.666-1.7-20.578-.973a1.123,1.123,0,0,1-.5-.005c-5.056-1.991-10.339-2.152-15.671-2.019a4.191,4.191,0,0,1-2.268-.512,11.371,11.371,0,0,0-6.9-1.491c-3.5.116-7.269.841-10.417-.211a17.617,17.617,0,0,0-8.138-.572,35.733,35.733,0,0,0-7.564,2.114c-3.614,1.359-7.417,2.626-11.385,2.673-3.764.043-7.23-.973-9.9-3.8-.88-.933-2.037-.833-2.982-1.271-2.647-1.229-5.514-1.131-8.223-1.87-1.977-.54-3.988.228-6.182-.808a43.057,43.057,0,0,0-5.679-1.914c-4.059-1.227-8.2-2.525-12.552-2.3a15.011,15.011,0,0,1-5-.418c-1.447-.53-2.922-1.583-4.333-1.5-5.758.324-11.4-.731-17.085-1.124-1.392-.1-2.569.981-3.569.871-1.319-.146-2.619-.829-4.1-.882-2.71-.1-5.532.721-8.112-.913a2.11,2.11,0,0,0-1.935,0c-2.245,1.8-4.093.687-6-.561a2.563,2.563,0,0,0-1.3-.464c-4.323,0-8.733-.512-12.668,1.979v2.5c3.935-2.491,8.345-1.981,12.668-1.979a2.563,2.563,0,0,1,1.3.464c1.9,1.248,3.752,2.36,6,.561a2.11,2.11,0,0,1,1.935,0c2.58,1.634,5.4.816,8.112.913,1.482.053,2.782.736,4.1.882,1,.11,2.177-.967,3.569-.871,5.69.393,11.327,1.448,17.085,1.124,1.411-.079,2.886.974,4.333,1.5a15.011,15.011,0,0,0,5,.418c4.354-.228,8.493,1.07,12.552,2.3a43.057,43.057,0,0,1,5.679,1.914c2.194,1.036,4.205.268,6.182.808,2.709.739,5.576.641,8.223,1.87.945.438,2.1.338,2.982,1.271,2.668,2.829,6.134,3.845,9.9,3.8,3.968-.047,7.771-1.314,11.385-2.673a35.733,35.733,0,0,1,7.564-2.114,17.617,17.617,0,0,1,8.138.572c3.148,1.052,6.921.327,10.417.211a11.371,11.371,0,0,1,6.9,1.491,4.191,4.191,0,0,0,2.268.512c5.332-.133,10.615.028,15.671,2.019a1.123,1.123,0,0,0,.5.005c6.912-.726,13.686,1.485,20.578.973,1.876-.14,3.714-.756,5.59-.938a19.441,19.441,0,0,0,5.632-.905,18.288,18.288,0,0,0,4.542-2.351c2.211-1.672,4.667-2.8,7.447-1.048a1.4,1.4,0,0,0,.882.253c4.275-.783,7.192,1.92,10.35,4a30.458,30.458,0,0,0,5.663,2.011c3.545-.108,6.987,0,10.268,1.793,1.306.715,3.148.372,4.653.821a90.719,90.719,0,0,1,10.7,4.33A60.418,60.418,0,0,0,268,3299.6c3.764.982,7.82.8,11.327,2.844a1.715,1.715,0,0,0,.917.183,18.309,18.309,0,0,1,9.61,1.361c3.328,1.218,7.02,1.882,9.9,3.779,4.229,2.787,9.408,2.155,13.606,4.658a5.274,5.274,0,0,0,2.4.205c1.5.026,3,.007,4.5.007,2.5,0,5.012-.162,7.494.045,2.564.213,4.1-2.539,6.674-2.045,2.937-2.021,6.623-1.51,9.805-2.881a6.491,6.491,0,0,1,4.713.437c4.995,2.354,9.9,1.38,14.861.136.9-.227,1.8-.531,2.715-.677,1.709-.272,3.341.015,5.16-.85,2.323-1.1,4.939.419,7.291,1.354a5.735,5.735,0,0,1,2.721,1.773c1.969,3.11,4.948,2.75,7.92,2.719,4.331-.044,8.664,0,13-.017,2.311-.011,4.6-.258,6.163,2.156.384.594,1.689.655,2.6.834,1.565.309,3.169.225,4.767.465,4.232.634,8.371,1.232,12.069,3.551,4.3-.637,8.114.955,11.916,2.61a3.779,3.779,0,0,0,1.338.374c3.026.1,5.907-.071,8.869,1.59,2.453,1.376,5.664,1.436,8.507,2.3a12.838,12.838,0,0,1,5.021,2.424c1.888,1.631,3.864,2.31,6.4.753a29.307,29.307,0,0,1,16.306-4.079c5.83.119,11.665-.042,17.495.066,1.874.034,3.7-.256,5.674.791a7.267,7.267,0,0,0,5.785-.1,10.11,10.11,0,0,1,4.211-.7c1.658-.115,3.343.107,4.995-.049,8.021-.758,11.08,2.132,16.891,6.261,4.2,2.987,3.945,3.092,9.985,1.88a20.812,20.812,0,0,0,5.387-1.545,6.871,6.871,0,0,1,2.759-.549c2.164-.077,4.337-.121,6.5.007a4.465,4.465,0,0,0,3.87-1.592,15.025,15.025,0,0,1,9.615-4.644,14.071,14.071,0,0,0,6.569-2.249c2-1.427,5.072-2.73,7.915-.589.512.385,1.367,1.722,2.184.15,7.15-.036,14.311-.313,21.443.031,2.295.111,4.452,2.037,6.781,2.8,1.812.6,3.733,2.372,5.738.238a.95.95,0,0,1,.9-.158c2.915,2.2,5.839.675,8.675-.069s5.715-1.156,8.436-2.587c1.7-.892,3.73-1.407,5.5-2.369a6.681,6.681,0,0,1,4.087-1.011c3.353.407,6.69-.346,10.136.857,3.17,1.107,6.567-.714,9.833-1.364.776-.154,1.241-.553,2.1-.023a10.2,10.2,0,0,0,9.51.737,33.046,33.046,0,0,0,5.177-2.053c2.23-1.249,5.028-1.493,7.593-2.125a6.438,6.438,0,0,1,1.5-.017c2.5,0,5-.057,7.5.017,2.322.068,3.714-2.581,6.17-2.017a3.107,3.107,0,0,1,4.019-.88c2.2,1.211,4.617.873,6.871,1.489a21.441,21.441,0,0,0,9.281.137c5.178-.966,12.617-1.05,17.14.513.878.3,2.163,1,2.634.661,3.564-2.595,6.644-.28,9.142,1.4,2.552,1.711,5.042,2.218,7.884,2.873,3.946.909,8.178.536,11.911,2.556.909.491,2.253.131,3.384.266,6.255.747,12.458-2.083,18.552-.859,6.908,1.388,13.756.407,20.611.842a14.006,14.006,0,0,0,7.251-1.772c3.287-1.7,6.652-1.025,10-1.221,2.273,2.354,4.637.3,6.5-.418,1.7-.653,3.652-1.028,4.664-.432,2.577,1.518,5.174.87,7.665.729,2.241-.127,4.429-1.266,6.63-1.993.728-.241,1.478-.933,2.122-.829,3.645.589,7.01-1.1,10.591-1.157,1.822-.027,3.648-1.357,5.576-.863a56.8,56.8,0,0,1,7.591,2.177c2.386.991,4.228,1.154,6.251-.224,1.9-1.29,4.479-1.721,5.992-.822,2.863,1.7,6.037-.2,8.844,1.719,2.273,1.551,5.447.868,8.138,2.008,2.614,1.106,5.581-.34,7.872-1.3,2.611-1.092,5.6-.791,7.97-2.533.453-.333,1.609-.01,2.29.321,2.922,1.417,5.585.768,8.129-.869,2.791-1.8,3.836-1.85,6.172.155,1.261,1.082,2.31,2.411,3.577,3.484.554.469,1.669,1.014,2.093.77,2.128-1.227,4.571-.355,6.586-1.045,3.55-1.215,7.211-.173,10.592-1.01,4.393-1.087,8.884-.074,13.079-1.026,5.576-1.265,11.088-.56,16.618-.825a43.26,43.26,0,0,1,16.168,1.974,1.622,1.622,0,0,0,.5.006c7.542-.011,15.007,1.732,22.58.995.628-.061,1.452.022,1.84-.336,2.31-2.128,5.124-1.545,7.828-1.682,1.245-.064,2.61.545,3.727-.711a1.892,1.892,0,0,1,1.826-.218c3.282,2.266,5.938-.074,8.789-1.042,2.352-.8,4.535-2.17,7.169-2.031a4.519,4.519,0,0,0,1.816-.417c5-1.992,5.085-1.93,10.489-.709a8.787,8.787,0,0,0,4.322-.166c2.789-.856,5.47-2.065,8.2-3.114a3.913,3.913,0,0,1,1.757-.53c3.639.631,7-1.315,10.591-1.053a2.112,2.112,0,0,0,1.391-.214c2.6-2.318,5.745-1.744,8.777-1.768,2.666-.02,5.333-.053,8,.008,4.188.095,8.16-1.168,12.085-2.267a14.11,14.11,0,0,1,3.668-.725q8.247-.069,16.5,0c1.24.013,2.486-.345,3.73.727.683.588,2.269.453,3.343.2,3.369-.793,6.659-1.953,10.18-1.953,3.554-2.623,7.681-1.82,11.664-2.066,1.484-.092,2.9-1.021,4.386-1.416,3.465-.92,6.862-2.02,10.425-2.689,2.882-.541,5.388-.837,8.228.089,2.554.832,5.536-.888,8.091,1.037.425.32,1.307.113,1.964.033,2.609-.315,4.478.627,5.262,3.2a1.281,1.281,0,0,0,1.965.76c3.4-1.765,7.392-1.211,10.807-2.9a2.787,2.787,0,0,1,2.427.014c1.925,1.553,4.087.874,6.134.906,5.83.092,11.676.257,17.49-.064,2.854-.157,5.348,1.138,8.089,1.1.166,0,.4-.074.489.01,4.038,3.92,8.375,1.878,12.558.481a12.584,12.584,0,0,1,6.71-.264,22.033,22.033,0,0,0,11.788-.122c.939-.23,2.448-.511,2.88-.033,2.2,2.44,5.478,1.257,7.968,2.624a3.945,3.945,0,0,0,2.849.251c4.8-1.649,9.737-.642,14.6-.98a4.475,4.475,0,0,0,2.6-.88,8.451,8.451,0,0,1,6.657-2.1,36.652,36.652,0,0,0,4.5-.005,21.4,21.4,0,0,1,11.515,2.407,10.128,10.128,0,0,0,8.015.067,6.178,6.178,0,0,1,5.09.079c.817.4,1.989.089,2.776.515,1.6.865,2.469-2.166,4.434-.481.985.845,3.189.111,4.752.475,3.695.861,7.568.972,11.126,2.12a16.066,16.066,0,0,0,5.137.815c3.4-.015,6.6,1.436,10.09,1.091,3.3-.326,6.788-.644,9.958.076,3.953.9,8.057,1.142,11.9,2.577a8.72,8.72,0,0,0,2.886.266c2.666.032,5.339.13,8-.016,4.2-.231,8.391-.627,12.582-.991a2.486,2.486,0,0,0,1.273-.519c2.49-2.016,5.7-1.535,8.527-2.3,2.533-.686,5.2-1.034,7.725-1.922a6.468,6.468,0,0,1,.9-.235,1.847,1.847,0,0,1,.5,0c9.232.726,18.44-1.758,27.558-.8,7.567.8,15.073.493,22.6.818a3.636,3.636,0,0,1,2.22.6c2.145,2.092,5.042,2.045,7.547,2.205a18.687,18.687,0,0,1,6.93,1.479c1.9.945,2.925.474,4.314-.3a5.764,5.764,0,0,1,6.206-.066,15.125,15.125,0,0,0,8.628,2.017,6.138,6.138,0,0,1,4.527,1.119c2.036,1.769,4.908-.071,6.731,1.929h12.5c1.584-1.871,3.721-.656,5.579-1v-2.5C1598.142,3307.477,1596.005,3306.262,1594.421,3308.133Z" fill="#fff"/>
    <path id="Path_9" data-name="Path 9" d="M0,3270.133c3.935-2.49,8.345-1.981,12.668-1.979a2.563,2.563,0,0,1,1.3.464c1.9,1.248,3.752,2.36,6,.561a2.11,2.11,0,0,1,1.935,0c2.58,1.634,5.4.816,8.112.912,1.482.054,2.782.737,4.1.883,1,.11,2.177-.967,3.569-.871,5.69.393,11.327,1.448,17.085,1.124,1.411-.079,2.886.974,4.333,1.5a15.011,15.011,0,0,0,5,.418c4.354-.228,8.493,1.07,12.552,2.3a43.057,43.057,0,0,1,5.679,1.914c2.194,1.036,4.205.268,6.182.808,2.709.739,5.576.641,8.223,1.87.945.438,2.1.338,2.982,1.271,2.668,2.829,6.134,3.845,9.9,3.8,3.968-.045,7.771-1.313,11.385-2.672a35.733,35.733,0,0,1,7.564-2.114,17.617,17.617,0,0,1,8.138.572c3.148,1.052,6.921.327,10.417.211a11.371,11.371,0,0,1,6.9,1.491,4.182,4.182,0,0,0,2.268.512c5.332-.133,10.615.028,15.671,2.019a1.123,1.123,0,0,0,.5.005c6.912-.726,13.686,1.485,20.578.973,1.876-.14,3.714-.756,5.59-.938a19.474,19.474,0,0,0,5.632-.905,18.288,18.288,0,0,0,4.542-2.351c2.211-1.672,4.667-2.8,7.447-1.048a1.4,1.4,0,0,0,.882.253c4.275-.783,7.192,1.92,10.35,4a30.458,30.458,0,0,0,5.663,2.011c3.545-.108,6.987,0,10.268,1.793,1.306.715,3.148.372,4.653.821a90.719,90.719,0,0,1,10.7,4.33A60.418,60.418,0,0,0,268,3297.1c3.764.982,7.82.8,11.327,2.844a1.715,1.715,0,0,0,.917.183,18.309,18.309,0,0,1,9.61,1.361c3.328,1.218,7.02,1.882,9.9,3.779,4.229,2.787,9.408,2.155,13.606,4.658a5.274,5.274,0,0,0,2.4.205c1.5.026,3,.007,4.5.007,2.5,0,5.012-.162,7.494.045,2.564.213,4.1-2.539,6.674-2.045,2.937-2.021,6.623-1.51,9.805-2.881a6.491,6.491,0,0,1,4.713.437c4.995,2.354,9.9,1.38,14.861.136.9-.227,1.8-.531,2.715-.677,1.709-.272,3.341.015,5.16-.85,2.323-1.1,4.939.419,7.291,1.354a5.735,5.735,0,0,1,2.721,1.773c1.969,3.11,4.948,2.75,7.92,2.72,4.331-.045,8.664,0,13-.018,2.311-.011,4.6-.258,6.163,2.156.384.594,1.689.655,2.6.834,1.565.309,3.169.225,4.767.465,4.232.634,8.371,1.232,12.069,3.551,4.3-.637,8.114.955,11.916,2.61a3.779,3.779,0,0,0,1.338.374c3.026.1,5.907-.072,8.869,1.59,2.453,1.376,5.664,1.436,8.507,2.3a12.838,12.838,0,0,1,5.021,2.424c1.888,1.631,3.864,2.31,6.4.753a29.307,29.307,0,0,1,16.306-4.079c5.83.119,11.665-.043,17.495.066,1.874.035,3.7-.256,5.674.791a7.271,7.271,0,0,0,5.785-.1,10.1,10.1,0,0,1,4.211-.7c1.658-.116,3.343.107,4.995-.05,8.021-.757,11.08,2.133,16.891,6.262,4.2,2.987,3.945,3.092,9.985,1.88a20.85,20.85,0,0,0,5.387-1.545,6.871,6.871,0,0,1,2.759-.549c2.164-.077,4.337-.121,6.5.007a4.465,4.465,0,0,0,3.87-1.592,15.025,15.025,0,0,1,9.615-4.644,14.071,14.071,0,0,0,6.569-2.249c2-1.427,5.072-2.73,7.915-.589.512.385,1.367,1.722,2.184.15,7.15-.036,14.311-.313,21.443.032,2.295.11,4.452,2.036,6.781,2.8,1.812.6,3.733,2.372,5.738.238a.95.95,0,0,1,.9-.158c2.915,2.2,5.839.675,8.675-.069s5.715-1.156,8.436-2.587c1.7-.892,3.73-1.407,5.5-2.369a6.674,6.674,0,0,1,4.087-1.01c3.353.406,6.69-.347,10.136.856,3.17,1.107,6.567-.714,9.833-1.364.776-.154,1.241-.553,2.1-.023a10.2,10.2,0,0,0,9.51.737,33.046,33.046,0,0,0,5.177-2.053c2.23-1.249,5.028-1.493,7.593-2.125a6.438,6.438,0,0,1,1.5-.017c2.5,0,5-.057,7.5.017,2.322.068,3.714-2.581,6.17-2.017a3.107,3.107,0,0,1,4.019-.88c2.2,1.211,4.617.873,6.871,1.489a21.426,21.426,0,0,0,9.281.136c5.178-.965,12.617-1.049,17.14.514.878.3,2.163,1,2.634.661,3.564-2.594,6.644-.28,9.142,1.4,2.552,1.711,5.042,2.218,7.884,2.873,3.946.909,8.178.536,11.911,2.556.909.491,2.253.131,3.384.266,6.255.747,12.458-2.083,18.552-.859,6.908,1.388,13.756.407,20.611.842a14.006,14.006,0,0,0,7.251-1.772c3.287-1.7,6.652-1.025,10-1.221,2.273,2.354,4.637.3,6.5-.418,1.7-.652,3.652-1.028,4.664-.432,2.577,1.518,5.174.87,7.665.729,2.241-.127,4.429-1.266,6.63-1.993.728-.241,1.478-.933,2.122-.829,3.645.589,7.01-1.1,10.591-1.157,1.822-.027,3.648-1.357,5.576-.863a56.8,56.8,0,0,1,7.591,2.177c2.386.991,4.228,1.154,6.251-.224,1.9-1.29,4.479-1.721,5.992-.822,2.863,1.7,6.037-.2,8.844,1.72,2.273,1.55,5.447.867,8.138,2.007,2.614,1.106,5.581-.34,7.872-1.3,2.611-1.092,5.6-.792,7.97-2.533.453-.333,1.609-.01,2.29.321,2.922,1.417,5.585.768,8.129-.869,2.791-1.8,3.836-1.85,6.172.155,1.261,1.082,2.31,2.411,3.577,3.484.554.469,1.669,1.015,2.093.77,2.128-1.227,4.571-.355,6.586-1.045,3.55-1.215,7.211-.173,10.592-1.01,4.393-1.087,8.884-.074,13.079-1.026,5.576-1.265,11.088-.56,16.618-.825a43.26,43.26,0,0,1,16.168,1.974,1.622,1.622,0,0,0,.5.006c7.542-.011,15.007,1.732,22.58.995.628-.061,1.452.022,1.84-.335,2.31-2.129,5.124-1.546,7.828-1.683,1.245-.064,2.61.545,3.727-.711a1.9,1.9,0,0,1,1.826-.219c3.282,2.267,5.938-.073,8.789-1.041,2.352-.8,4.535-2.17,7.169-2.032a4.5,4.5,0,0,0,1.816-.416c5-1.992,5.085-1.93,10.489-.709a8.787,8.787,0,0,0,4.322-.166c2.789-.856,5.47-2.065,8.2-3.114a3.913,3.913,0,0,1,1.757-.53c3.639.631,7-1.315,10.591-1.053a2.112,2.112,0,0,0,1.391-.214c2.6-2.318,5.745-1.744,8.777-1.768,2.666-.02,5.333-.053,8,.008,4.188.095,8.16-1.168,12.085-2.267a14.11,14.11,0,0,1,3.668-.725q8.247-.069,16.5,0c1.24.013,2.486-.345,3.73.728.683.587,2.269.452,3.343.2,3.369-.793,6.659-1.953,10.18-1.953,3.554-2.623,7.681-1.82,11.664-2.066,1.484-.092,2.9-1.021,4.386-1.416,3.465-.92,6.862-2.02,10.425-2.689,2.882-.541,5.388-.837,8.228.089,2.554.832,5.536-.888,8.091,1.037.425.32,1.307.113,1.964.033,2.609-.316,4.478.627,5.262,3.2a1.281,1.281,0,0,0,1.965.76c3.4-1.765,7.392-1.211,10.807-2.9a2.787,2.787,0,0,1,2.427.014c1.925,1.553,4.087.874,6.134.906,5.83.092,11.676.257,17.49-.064,2.854-.157,5.348,1.138,8.089,1.1.166,0,.4-.074.489.01,4.038,3.92,8.375,1.878,12.558.481a12.594,12.594,0,0,1,6.71-.265,22.014,22.014,0,0,0,11.788-.121c.939-.23,2.448-.511,2.88-.033,2.2,2.44,5.478,1.257,7.968,2.624a3.945,3.945,0,0,0,2.849.251c4.8-1.649,9.737-.642,14.6-.98a4.468,4.468,0,0,0,2.6-.88,8.451,8.451,0,0,1,6.657-2.1,36.652,36.652,0,0,0,4.5-.005,21.391,21.391,0,0,1,11.515,2.408,10.132,10.132,0,0,0,8.015.066,6.182,6.182,0,0,1,5.09.079c.817.4,1.989.089,2.776.515,1.6.865,2.469-2.166,4.434-.481.985.845,3.189.111,4.752.475,3.695.861,7.568.972,11.126,2.12a16.066,16.066,0,0,0,5.137.815c3.4-.015,6.6,1.436,10.09,1.091,3.3-.326,6.788-.644,9.958.076,3.953.9,8.057,1.142,11.9,2.577a8.746,8.746,0,0,0,2.886.266c2.666.032,5.339.13,8-.016,4.2-.231,8.391-.627,12.582-.991a2.486,2.486,0,0,0,1.273-.519c2.49-2.016,5.7-1.534,8.527-2.3,2.533-.687,5.2-1.034,7.725-1.922a6.468,6.468,0,0,1,.9-.235,1.847,1.847,0,0,1,.5,0c9.232.726,18.44-1.758,27.558-.8,7.567.8,15.073.493,22.6.818a3.643,3.643,0,0,1,2.22.6c2.145,2.091,5.042,2.045,7.547,2.205a18.687,18.687,0,0,1,6.93,1.479c1.9.945,2.925.474,4.314-.3a5.764,5.764,0,0,1,6.206-.066,15.125,15.125,0,0,0,8.628,2.017,6.138,6.138,0,0,1,4.527,1.119c2.036,1.769,4.908-.071,6.731,1.929h12.5c1.584-1.871,3.721-.656,5.579-1V3214.59H0Z" fill="rgba(0,0,0,0.79)" opacity="0.8"/>
  </g>
</svg>
