<svg xmlns="http://www.w3.org/2000/svg" width="1600" height="82.561" viewBox="0 0 1600 82.561">
  <path id="bottom_section_border" data-name="bottom section border" d="M1572.323,887.523a59.221,59.221,0,0,1-8.6-2.44c-.523-.159-.955-.774-1.457-.811-5.222-.382-10.005-2.164-14.726-4.228a2.549,2.549,0,0,0-2.135.2c-3.029,2.245-6.049,1.005-9.114.213-2.842-.735-5.775-1.188-8.54-2.13-1.7-.578-3.154-1.842-4.877-2.9-6.642,1.413-13.283,1.935-20.191-.406-3.625-1.229-8.049-2.2-11.929.452a2.506,2.506,0,0,1-1.608.266c-11.383-1.532-21.849,1.813-32.411,5.36-4.875,1.638-10.3,1.616-15.4,2.715a13.637,13.637,0,0,1-10.541-1.494,11.4,11.4,0,0,0-4.324-1.155c-5-.668-10.016-1.773-15.009-1.688-7.967.137-15.443-2.071-23.086-3.525-1.244-.237-2.372-1.052-3.616-1.3-2.361-.47-4.819-1.183-7.136-.925-1.954.217-3.506,1.435-5.614-.26-.861-.693-3.216.09-4.755.6-3.333,1.1-6.191,1.2-9.309-1.084-4.443-3.262-10.051-2.127-15.165-2.631-1.292-.127-3.008,1.393-4.119,2.54-1.97,2.033-3.914,2.1-6.6,1.475a13.509,13.509,0,0,0-7.5.289c-4.286,1.66-8.025.663-11.933-.813-1.525-.575-3.385-1.509-4.731-1.107-5.458,1.63-10.717.027-16.065-.247a11.753,11.753,0,0,0-5.747,1.4c-2.535,1.33-5.379,2.029-7.428.43-5.373-4.191-11.492-4.053-17.609-3.62a61.791,61.791,0,0,1-16.573-.85c-3-.59-6.555,1.423-9.832,2.355-1.7.483-3.341,1.167-5.461,1.922.465-3.57-1.2-5.1-3.827-5.659-3.981-.856-8-1.54-12-2.285-1.106-.206-2.344-.772-3.311-.486a148.269,148.269,0,0,0-14.685,4.868c-2.391.989-4.257,2.7-7.255,1.847-1.461-.416-3.346.222-4.936.707-4.054,1.237-7.966,3.172-12.1,3.827-2.939.466-6.14-.723-9.232-1.118-1.832-.235-3.807-.853-5.49-.428a27.911,27.911,0,0,1-9.373,1.024c-3.008-.247-5.84,1.246-8.736,2.132-4.336,1.327-9.212,1.145-13.864,1.208-3.419.045-6.711-.24-9.529,2.291-.673.6-2.086.551-3.161.561-5.1.044-9.776.741-14.267,3.812a9.6,9.6,0,0,1-9.6,1.154c-1.851-.844-4.813-.3-6.9.525-4.556,1.795-9.562,2.6-13.582,5.722a4.646,4.646,0,0,1-3.251.4c-6.072-1.076-11.66.663-17.247,2.59-1.209.417-2.715,1.172-3.72.8-6.953-2.537-14.41-.387-21.384-2.411-.533-.155-1.186-.007-1.663-.239-6.239-3.044-12.808-1.215-19.238-1.257-3.181-.021-6.375.148-9.544.438-4.977.455-9.936,1.5-14.906,1.526a51.258,51.258,0,0,0-16.224,2.807c-1.39-1.711-2.791-3.369-4.117-5.083-2.035-2.631-3.415-2.952-5.889-.786-2.278,1.994-4.376,3.351-7.449,1.43a4.473,4.473,0,0,0-3.206,0c-3.727,1.158-7.36,2.618-11.1,3.71-1.539.449-3.614.883-4.856.234-4.668-2.438-9.917-2.473-14.783-3.985-2.187-.68-4.268-1.017-6.386.6-2.759,2.107-5.9,1.354-8.5-.189-5.157-3.062-10.187-2.427-15.349-.336-1.032.419-2.173,1.4-3.057,1.208-4.29-.934-7.677,1.333-11.207,2.856-2.407,1.038-4.365,1.508-6.844.068-3.669-2.132-6.786.087-9.923,2.193-3.931-2.831-7.619-2.289-12.072-.555-3.938,1.534-8.435,3.024-13.075,1.928a7.275,7.275,0,0,0-3.344.271c-3.559.934-6.823.353-10.317-.775a17.556,17.556,0,0,0-8.229-.087c-5.76,1.068-11.351,2.268-17.014-.589-1.757-.887-4.022-.8-6.052-1.161-4.126-.738-8.25-.948-11.423-4.623-1.752-2.029-4.664-3.863-8.086-2.108-.68.349-1.84-.007-2.714-.256-7.192-2.05-14.329-1.141-21.58-.168-2.772.372-5.874-.8-8.678-1.71-2.881-.933-5.506-1.091-8.072.6-3.931,2.588-8.513,2.436-12.87,2.535-2.8.064-5.1.455-7.3,2.122-1.613,1.225-3.285,2.655-5.168,3.2-3.779,1.086-7.754,1.89-10.942-1.627a18.99,18.99,0,0,1-14.36,1.378,13.2,13.2,0,0,0-10.654,1.3c-3.7,2.281-7.924,3.747-11.952,5.495-3.135,1.36-6.3,2.259-9.792.957-.87-.325-2.129.541-3.2.507-1.236-.04-2.821-.076-3.632-.793-6.448-5.705-14.178-4.865-21.831-4.335-2.333.162-4.625.846-6.954,1.167a2,2,0,0,1-1.6-.631c-1.493-2.118-2.995-2.16-5.215-.817-3.628,2.195-7.231,4.306-11.774,4.86-2.141.261-4.256,2.806-5.864,4.734-2.483,2.976-5.4,3.2-8.91,2.691-1.759-.255-4.032-.239-5.4.651-4.322,2.807-8.8,2.278-13.4,1.48-5.628-9.742-14.543-11.982-24.729-9.565-2.8.664-5.88.2-8.831.18-4.083-.03-8.165-.219-12.247-.184-6.32.054-12.746-1.344-18.914,1.007a28.621,28.621,0,0,0-5.832,2.965c-3.374,2.288-4.7,2.026-7.479-.81-1.44-1.469-3.622-2.321-5.588-3.188-2.535-1.117-5.173-2.022-7.8-2.917-1.375-.468-2.946-1.24-4.215-.955-2.1.471-3.536-.206-5.236-1.149-3.234-1.795-6.67-3.163-10.528-2.962a2.607,2.607,0,0,1-1.515-.193c-5.047-3.638-10.92-4.431-16.91-4.929-.86-.071-2.161-.427-2.435-1.019-1.628-3.521-4.773-3.14-7.721-3.066-4.463.112-8.944.229-13.368.748-2.059.242-3.146-.3-4.09-1.917-3.077-5.283-7.605-6.49-13.417-4.9-3.911,1.071-7.969,1.642-11.981,2.321-1.249.211-2.828.505-3.8-.033-3.746-2.069-7.764-1.4-11.574-1.082-2.62.218-5.164,1.822-7.645,3-3.022,1.437-5.845,3.548-9.455,1.55a1.8,1.8,0,0,0-1.618.065c-2.922,2.529-5.552.22-8.4-.2-8.658-1.271-15.6-6.333-23.293-9.715-3.094-1.361-5.831-3.229-9.5-2.233-.864.235-2.022-.5-3.024-.848-2.207-.764-4.344-1.951-6.612-2.27-4.727-.665-8.632-2.709-12.791-4.959-6.99-3.782-14.372-7.362-22.578-7.886-4.012-.257-7.18-1.382-9.687-4.481-2.992-3.7-7.767-3.022-11.745-4.21-.907-.271-2.54,1.313-3.643,2.265-2.917,2.517-6.052,4.114-10.127,4-2.159-.062-4.346.776-6.519,1.216-.544.111-1.171.5-1.606.349-6.145-2.177-12.653-1.026-18.937-2.041-4.464-.721-8.653-3.532-13.545-1.781-.89.319-2.287-.7-3.439-1.129-1.536-.57-3.1-1.734-4.586-1.649a73.478,73.478,0,0,1-15.579-.925c-4.892-.759-9.3.966-13.721,3.106-5.235,2.536-10.835,4.264-16.572,1.006-.8-.454-1.858-.814-2.275-1.517-2.629-4.428-6.654-4.652-11.385-4.934-4.415-.264-8.941-2.066-12.983-4.047-3.855-1.889-7.412-3.073-11.788-2.347a10.006,10.006,0,0,1-6.2-1.413,11.373,11.373,0,0,0-7.437-1.587,29.023,29.023,0,0,1-6.542-.45c-1.076-.143-2.259-1.212-3.117-.959-6.52,1.928-12.869-.344-19.291-.467-1.24-.024-2.493.594-4.046.995-3.273-3.595-7.306-4.165-11.975-2.067-4.044,1.816-9.446,2.234-12.129,5.153A17.488,17.488,0,0,1,0,846.211v2.5a17.488,17.488,0,0,0,3.99-3.226c2.683-2.919,8.085-3.337,12.129-5.153,4.669-2.1,8.7-1.528,11.975,2.067,1.553-.4,2.806-1.019,4.046-.995,6.422.123,12.771,2.4,19.291.467.858-.253,2.041.816,3.117.959a29.023,29.023,0,0,0,6.542.45,11.373,11.373,0,0,1,7.437,1.587,10.006,10.006,0,0,0,6.2,1.413c4.376-.726,7.933.458,11.788,2.347,4.042,1.981,8.568,3.783,12.983,4.047,4.731.282,8.756.506,11.385,4.934.417.7,1.475,1.063,2.275,1.517,5.737,3.258,11.337,1.53,16.572-1.006,4.418-2.14,8.829-3.865,13.721-3.106a73.478,73.478,0,0,0,15.579.925c1.49-.085,3.05,1.079,4.586,1.649,1.152.428,2.549,1.448,3.439,1.129,4.892-1.751,9.081,1.06,13.545,1.781,6.284,1.015,12.792-.136,18.937,2.041.435.154,1.062-.238,1.606-.349,2.173-.44,4.36-1.278,6.519-1.216,4.075.118,7.21-1.479,10.127-4,1.1-.952,2.736-2.536,3.643-2.265,3.978,1.188,8.753.51,11.745,4.21,2.507,3.1,5.675,4.224,9.687,4.481,8.206.524,15.588,4.1,22.578,7.886,4.159,2.25,8.064,4.294,12.791,4.959,2.268.319,4.405,1.506,6.612,2.27,1,.347,2.16,1.083,3.024.848,3.672-1,6.409.872,9.5,2.233,7.689,3.382,14.635,8.444,23.293,9.715,2.845.417,5.475,2.726,8.4.2a1.8,1.8,0,0,1,1.618-.065c3.61,2,6.433-.113,9.455-1.55,2.481-1.18,5.025-2.784,7.645-3,3.81-.317,7.828-.987,11.574,1.082.975.538,2.554.244,3.8.033,4.012-.679,8.07-1.25,11.981-2.321,5.812-1.592,10.34-.385,13.417,4.9.944,1.62,2.031,2.159,4.09,1.917,4.424-.519,8.9-.636,13.368-.748,2.948-.074,6.093-.455,7.721,3.066.274.592,1.575.948,2.435,1.019,5.99.5,11.863,1.291,16.91,4.929a2.607,2.607,0,0,0,1.515.193c3.858-.2,7.294,1.167,10.528,2.962,1.7.943,3.137,1.62,5.236,1.149,1.269-.285,2.84.487,4.215.955,2.628.895,5.266,1.8,7.8,2.917,1.966.867,4.148,1.719,5.588,3.188,2.778,2.836,4.105,3.1,7.479.81a28.621,28.621,0,0,1,5.832-2.965c6.168-2.351,12.594-.953,18.914-1.007,4.082-.035,8.164.154,12.247.184,2.951.022,6.034.484,8.831-.18,10.186-2.417,19.1-.177,24.729,9.565,4.608.8,9.082,1.327,13.4-1.48,1.371-.89,3.644-.906,5.4-.651,3.506.509,6.427.285,8.91-2.691,1.608-1.928,3.723-4.473,5.864-4.734,4.543-.554,8.146-2.665,11.774-4.86,2.22-1.343,3.722-1.3,5.215.817a2,2,0,0,0,1.6.631c2.329-.321,4.621-1.005,6.954-1.167,7.653-.53,15.383-1.37,21.831,4.335.811.717,2.4.753,3.632.793,1.069.034,2.328-.832,3.2-.507,3.493,1.3,6.657.4,9.792-.957,4.028-1.748,8.254-3.214,11.952-5.495a13.2,13.2,0,0,1,10.654-1.3,18.99,18.99,0,0,0,14.36-1.378c3.188,3.517,7.163,2.713,10.942,1.627,1.883-.541,3.555-1.971,5.168-3.2,2.2-1.667,4.5-2.058,7.3-2.122,4.357-.1,8.939.053,12.87-2.535,2.566-1.689,5.191-1.531,8.072-.6,2.8.908,5.906,2.082,8.678,1.71,7.251-.973,14.388-1.882,21.58.168.874.249,2.034.6,2.714.256,3.422-1.755,6.334.079,8.086,2.108,3.173,3.675,7.3,3.885,11.423,4.623,2.03.364,4.3.274,6.052,1.161,5.663,2.857,11.254,1.657,17.014.589a17.556,17.556,0,0,1,8.229.087c3.494,1.128,6.758,1.709,10.317.775a7.275,7.275,0,0,1,3.344-.271c4.64,1.1,9.137-.394,13.075-1.928,4.453-1.734,8.141-2.276,12.072.555,3.137-2.106,6.254-4.325,9.923-2.193,2.479,1.44,4.437.97,6.844-.068,3.53-1.523,6.917-3.79,11.207-2.856.884.193,2.025-.789,3.057-1.208,5.162-2.091,10.192-2.726,15.349.336,2.6,1.543,5.745,2.3,8.5.189,2.118-1.616,4.2-1.279,6.386-.6,4.866,1.512,10.115,1.547,14.783,3.985,1.242.649,3.317.215,4.856-.234,3.745-1.092,7.378-2.552,11.1-3.71a4.473,4.473,0,0,1,3.206,0c3.073,1.921,5.171.564,7.449-1.43,2.474-2.166,3.854-1.845,5.889.786,1.326,1.714,2.727,3.372,4.117,5.083a51.258,51.258,0,0,1,16.224-2.807c4.97-.023,9.929-1.071,14.906-1.526,3.169-.29,6.363-.459,9.544-.438,6.43.042,13-1.787,19.238,1.257.477.232,1.13.084,1.663.239,6.974,2.024,14.431-.126,21.384,2.411,1.005.367,2.511-.388,3.72-.8,5.587-1.927,11.175-3.666,17.247-2.59a4.646,4.646,0,0,0,3.251-.4c4.02-3.124,9.026-3.927,13.582-5.722,2.09-.824,5.052-1.369,6.9-.525a9.6,9.6,0,0,0,9.6-1.154c4.491-3.071,9.168-3.768,14.267-3.812,1.075-.01,2.488.044,3.161-.561,2.818-2.531,6.11-2.246,9.529-2.291,4.652-.063,9.528.119,13.864-1.208,2.9-.886,5.728-2.379,8.736-2.132a27.911,27.911,0,0,0,9.373-1.024c1.683-.425,3.658.193,5.49.428,3.092.4,6.293,1.584,9.232,1.118,4.132-.655,8.044-2.59,12.1-3.827,1.59-.485,3.475-1.123,4.936-.707,3,.855,4.864-.858,7.255-1.847a148.269,148.269,0,0,1,14.685-4.868c.967-.286,2.2.28,3.311.486,4.005.745,8.023,1.429,12,2.285,2.623.563,4.292,2.089,3.827,5.659,2.12-.755,3.761-1.439,5.461-1.922,3.277-.932,6.831-2.945,9.832-2.355a61.791,61.791,0,0,0,16.573.85c6.117-.433,12.236-.571,17.609,3.62,2.049,1.6,4.893.9,7.428-.43a11.753,11.753,0,0,1,5.747-1.4c5.348.274,10.607,1.877,16.065.247,1.346-.4,3.206.532,4.731,1.107,3.908,1.476,7.647,2.473,11.933.813a13.509,13.509,0,0,1,7.5-.289c2.682.623,4.626.558,6.6-1.475,1.111-1.147,2.827-2.667,4.119-2.54,5.114.5,10.722-.631,15.165,2.631,3.118,2.288,5.976,2.188,9.309,1.084,1.539-.509,3.894-1.292,4.755-.6,2.108,1.7,3.66.477,5.614.26,2.317-.258,4.775.455,7.136.925,1.244.248,2.372,1.063,3.616,1.3,7.643,1.454,15.119,3.662,23.086,3.525,4.993-.085,10.013,1.02,15.009,1.688a11.4,11.4,0,0,1,4.324,1.155,13.637,13.637,0,0,0,10.541,1.494c5.095-1.1,10.522-1.077,15.4-2.715,10.562-3.547,21.028-6.892,32.411-5.36a2.506,2.506,0,0,0,1.608-.266c3.88-2.655,8.3-1.681,11.929-.452,6.908,2.341,13.549,1.819,20.191.406,1.723,1.053,3.179,2.317,4.877,2.9,2.765.942,5.7,1.4,8.54,2.13,3.065.792,6.085,2.032,9.114-.213a2.549,2.549,0,0,1,2.135-.2c4.721,2.064,9.5,3.846,14.726,4.228.5.037.934.652,1.457.811a59.221,59.221,0,0,0,8.6,2.44c6.466.931,12.339-2.1,18.421-3.445,3.125-.69,6.2-1.6,9.255-2.581v-2.5c-3.057.98-6.13,1.891-9.255,2.581C1584.662,885.421,1578.789,888.454,1572.323,887.523Z" transform="translate(0.001 -836.616)" fill="#fff"/>
</svg>
