<svg xmlns="http://www.w3.org/2000/svg" width="1600" height="82.561" viewBox="0 0 1600 82.561">
  <path id="bottom_section_border" data-name="bottom section border" d="M1572.323,704.866a59.357,59.357,0,0,1-8.6-2.441c-.523-.159-.955-.773-1.457-.81-5.222-.382-10.005-2.165-14.726-4.229a2.552,2.552,0,0,0-2.135.2c-3.029,2.244-6.049,1-9.114.212-2.842-.734-5.775-1.188-8.54-2.129-1.7-.579-3.154-1.843-4.877-2.9-6.642,1.413-13.283,1.936-20.191-.406-3.625-1.228-8.049-2.2-11.929.453a2.506,2.506,0,0,1-1.608.266c-11.383-1.532-21.849,1.813-32.411,5.36-4.875,1.637-10.3,1.616-15.4,2.714a13.628,13.628,0,0,1-10.541-1.494,11.439,11.439,0,0,0-4.324-1.155c-5-.667-10.016-1.773-15.009-1.687-7.967.136-15.443-2.071-23.086-3.525-1.244-.237-2.372-1.053-3.616-1.3-2.361-.471-4.819-1.183-7.136-.925-1.954.217-3.506,1.435-5.614-.26-.861-.693-3.216.089-4.755.6-3.333,1.1-6.191,1.2-9.309-1.085-4.443-3.261-10.051-2.127-15.165-2.63-1.292-.128-3.008,1.392-4.119,2.539-1.97,2.034-3.914,2.1-6.6,1.476a13.519,13.519,0,0,0-7.5.288c-4.286,1.66-8.025.664-11.933-.812-1.525-.576-3.385-1.51-4.731-1.108-5.458,1.631-10.717.027-16.065-.246a11.732,11.732,0,0,0-5.747,1.405c-2.535,1.33-5.379,2.028-7.428.43-5.373-4.192-11.492-4.053-17.609-3.62a61.792,61.792,0,0,1-16.573-.851c-3-.589-6.555,1.424-9.832,2.355-1.7.483-3.341,1.168-5.461,1.922.465-3.57-1.2-5.1-3.827-5.659-3.981-.855-8-1.54-12-2.285-1.106-.206-2.344-.772-3.311-.485a148.253,148.253,0,0,0-14.685,4.868c-2.391.989-4.257,2.7-7.255,1.847-1.461-.416-3.346.222-4.936.707-4.054,1.237-7.966,3.172-12.1,3.827-2.939.466-6.14-.724-9.232-1.119-1.832-.234-3.807-.852-5.49-.427a27.964,27.964,0,0,1-9.373,1.024c-3.008-.248-5.84,1.245-8.736,2.132-4.336,1.326-9.212,1.145-13.864,1.207-3.419.046-6.711-.24-9.529,2.292-.673.605-2.086.551-3.161.56-5.1.044-9.776.741-14.267,3.813a9.6,9.6,0,0,1-9.6,1.154c-1.851-.845-4.813-.3-6.9.525-4.556,1.8-9.562,2.6-13.582,5.721a4.652,4.652,0,0,1-3.251.4c-6.072-1.076-11.66.663-17.247,2.589-1.209.417-2.715,1.172-3.72.806-6.953-2.538-14.41-.388-21.384-2.412-.533-.155-1.186-.006-1.663-.238-6.239-3.044-12.808-1.216-19.238-1.258-3.181-.02-6.375.149-9.544.438-4.977.455-9.936,1.5-14.906,1.527a51.231,51.231,0,0,0-16.224,2.807c-1.39-1.712-2.791-3.369-4.117-5.083-2.035-2.631-3.415-2.952-5.889-.786-2.278,1.994-4.376,3.351-7.449,1.43a4.462,4.462,0,0,0-3.206,0c-3.727,1.158-7.36,2.618-11.1,3.71-1.539.449-3.614.883-4.856.234-4.668-2.439-9.917-2.473-14.783-3.986-2.187-.68-4.268-1.017-6.386.6-2.759,2.106-5.9,1.354-8.5-.189-5.157-3.063-10.187-2.427-15.349-.336-1.032.418-2.173,1.4-3.057,1.208-4.29-.934-7.677,1.332-11.207,2.855-2.407,1.039-4.365,1.509-6.844.068-3.669-2.131-6.786.087-9.923,2.194-3.931-2.831-7.619-2.289-12.072-.555-3.938,1.533-8.435,3.024-13.075,1.928a7.288,7.288,0,0,0-3.344.27c-3.559.935-6.823.354-10.317-.774a17.569,17.569,0,0,0-8.229-.088c-5.76,1.069-11.351,2.268-17.014-.589-1.757-.886-4.022-.8-6.052-1.16-4.126-.739-8.25-.948-11.423-4.623-1.752-2.029-4.664-3.863-8.086-2.108-.68.349-1.84-.007-2.714-.257-7.192-2.05-14.329-1.141-21.58-.168-2.772.372-5.874-.8-8.678-1.709-2.881-.933-5.506-1.092-8.072.6-3.931,2.588-8.513,2.437-12.87,2.536-2.8.063-5.1.455-7.3,2.122-1.613,1.224-3.285,2.655-5.168,3.2-3.779,1.086-7.754,1.89-10.942-1.628a18.99,18.99,0,0,1-14.36,1.379,13.2,13.2,0,0,0-10.654,1.3c-3.7,2.282-7.924,3.747-11.952,5.5-3.135,1.36-6.3,2.259-9.792.956-.87-.324-2.129.542-3.2.507-1.236-.04-2.821-.075-3.632-.793-6.448-5.7-14.178-4.865-21.831-4.334-2.333.161-4.625.846-6.954,1.167a2,2,0,0,1-1.6-.631c-1.493-2.118-2.995-2.16-5.215-.818-3.628,2.2-7.231,4.307-11.774,4.861-2.141.261-4.256,2.806-5.864,4.733-2.483,2.977-5.4,3.2-8.91,2.691-1.759-.255-4.032-.238-5.4.652-4.322,2.806-8.8,2.278-13.4,1.48-5.628-9.743-14.543-11.982-24.729-9.565-2.8.664-5.88.2-8.831.179-4.083-.03-8.165-.219-12.247-.184-6.32.054-12.746-1.343-18.914,1.008a28.571,28.571,0,0,0-5.832,2.964c-3.374,2.288-4.7,2.027-7.479-.809-1.44-1.47-3.622-2.321-5.588-3.188-2.535-1.118-5.173-2.022-7.8-2.917-1.375-.469-2.946-1.24-4.215-.955-2.1.471-3.536-.206-5.236-1.15-3.234-1.795-6.67-3.163-10.528-2.961a2.616,2.616,0,0,1-1.515-.193c-5.047-3.638-10.92-4.431-16.91-4.929-.86-.071-2.161-.427-2.435-1.019-1.628-3.521-4.773-3.141-7.721-3.067-4.463.112-8.944.229-13.368.749-2.059.241-3.146-.3-4.09-1.917-3.077-5.283-7.605-6.49-13.417-4.9-3.911,1.071-7.969,1.642-11.981,2.321-1.249.211-2.828.505-3.8-.034-3.746-2.069-7.764-1.4-11.574-1.081-2.62.217-5.164,1.822-7.645,3-3.022,1.437-5.845,3.548-9.455,1.55a1.8,1.8,0,0,0-1.618.065c-2.922,2.528-5.552.22-8.4-.2-8.658-1.271-15.6-6.332-23.293-9.715-3.094-1.36-5.831-3.229-9.5-2.232-.864.235-2.022-.5-3.024-.848-2.207-.764-4.344-1.952-6.612-2.27-4.727-.665-8.632-2.71-12.791-4.96-6.99-3.781-14.372-7.362-22.578-7.886-4.012-.256-7.18-1.381-9.687-4.48-2.992-3.7-7.767-3.023-11.745-4.211-.907-.271-2.54,1.314-3.643,2.265-2.917,2.518-6.052,4.115-10.127,4-2.159-.062-4.346.775-6.519,1.216-.544.11-1.171.5-1.606.348-6.145-2.176-12.653-1.026-18.937-2.041-4.464-.721-8.653-3.531-13.545-1.78-.89.318-2.287-.7-3.439-1.129-1.536-.57-3.1-1.734-4.586-1.649a73.483,73.483,0,0,1-15.579-.926c-4.892-.758-9.3.966-13.721,3.107-5.235,2.535-10.835,4.263-16.572,1.005-.8-.454-1.858-.814-2.275-1.516-2.629-4.429-6.654-4.652-11.385-4.935-4.415-.264-8.941-2.065-12.983-4.047-3.855-1.889-7.412-3.072-11.788-2.347a10,10,0,0,1-6.2-1.413,11.38,11.38,0,0,0-7.437-1.587,28.965,28.965,0,0,1-6.542-.449c-1.076-.144-2.259-1.213-3.117-.959-6.52,1.927-12.869-.344-19.291-.468-1.24-.024-2.493.6-4.046,1-3.273-3.6-7.306-4.166-11.975-2.068-4.044,1.817-9.446,2.234-12.129,5.154A17.544,17.544,0,0,1,0,663.554v2.5a17.544,17.544,0,0,0,3.99-3.226c2.683-2.92,8.085-3.337,12.129-5.154,4.669-2.1,8.7-1.528,11.975,2.068,1.553-.4,2.806-1.02,4.046-1,6.422.124,12.771,2.4,19.291.468.858-.254,2.041.815,3.117.959a28.965,28.965,0,0,0,6.542.449,11.38,11.38,0,0,1,7.437,1.587,10,10,0,0,0,6.2,1.413c4.376-.725,7.933.458,11.788,2.347,4.042,1.982,8.568,3.783,12.983,4.047,4.731.283,8.756.506,11.385,4.935.417.7,1.475,1.062,2.275,1.516,5.737,3.258,11.337,1.53,16.572-1.005,4.418-2.141,8.829-3.865,13.721-3.107a73.483,73.483,0,0,0,15.579.926c1.49-.085,3.05,1.079,4.586,1.649,1.152.428,2.549,1.447,3.439,1.129,4.892-1.751,9.081,1.059,13.545,1.78,6.284,1.015,12.792-.135,18.937,2.041.435.155,1.062-.238,1.606-.348,2.173-.441,4.36-1.278,6.519-1.216,4.075.118,7.21-1.479,10.127-4,1.1-.951,2.736-2.536,3.643-2.265,3.978,1.188,8.753.511,11.745,4.211,2.507,3.1,5.675,4.224,9.687,4.48,8.206.524,15.588,4.1,22.578,7.886,4.159,2.25,8.064,4.3,12.791,4.96,2.268.318,4.405,1.506,6.612,2.27,1,.347,2.16,1.083,3.024.848,3.672-1,6.409.872,9.5,2.232,7.689,3.383,14.635,8.444,23.293,9.715,2.845.418,5.475,2.726,8.4.2a1.8,1.8,0,0,1,1.618-.065c3.61,2,6.433-.113,9.455-1.55,2.481-1.18,5.025-2.785,7.645-3,3.81-.317,7.828-.988,11.574,1.081.975.539,2.554.245,3.8.034,4.012-.679,8.07-1.25,11.981-2.321,5.812-1.592,10.34-.385,13.417,4.9.944,1.62,2.031,2.158,4.09,1.917,4.424-.52,8.9-.637,13.368-.749,2.948-.074,6.093-.454,7.721,3.067.274.592,1.575.948,2.435,1.019,5.99.5,11.863,1.291,16.91,4.929a2.616,2.616,0,0,0,1.515.193c3.858-.2,7.294,1.166,10.528,2.961,1.7.944,3.137,1.621,5.236,1.15,1.269-.285,2.84.486,4.215.955,2.628.9,5.266,1.8,7.8,2.917,1.966.867,4.148,1.718,5.588,3.188,2.778,2.836,4.105,3.1,7.479.809a28.571,28.571,0,0,1,5.832-2.964c6.168-2.351,12.594-.954,18.914-1.008,4.082-.035,8.164.154,12.247.184,2.951.022,6.034.485,8.831-.179,10.186-2.417,19.1-.178,24.729,9.565,4.608.8,9.082,1.326,13.4-1.48,1.371-.89,3.644-.907,5.4-.652,3.506.51,6.427.286,8.91-2.691,1.608-1.927,3.723-4.472,5.864-4.733,4.543-.554,8.146-2.666,11.774-4.861,2.22-1.342,3.722-1.3,5.215.818a2,2,0,0,0,1.6.631c2.329-.321,4.621-1.006,6.954-1.167,7.653-.531,15.383-1.371,21.831,4.334.811.718,2.4.753,3.632.793,1.069.035,2.328-.831,3.2-.507,3.493,1.3,6.657.4,9.792-.956,4.028-1.749,8.254-3.214,11.952-5.5a13.2,13.2,0,0,1,10.654-1.3,18.99,18.99,0,0,0,14.36-1.379c3.188,3.518,7.163,2.714,10.942,1.628,1.883-.541,3.555-1.972,5.168-3.2,2.2-1.667,4.5-2.059,7.3-2.122,4.357-.1,8.939.052,12.87-2.536,2.566-1.689,5.191-1.53,8.072-.6,2.8.908,5.906,2.081,8.678,1.709,7.251-.973,14.388-1.882,21.58.168.874.25,2.034.606,2.714.257,3.422-1.755,6.334.079,8.086,2.108,3.173,3.675,7.3,3.884,11.423,4.623,2.03.364,4.3.274,6.052,1.16,5.663,2.857,11.254,1.658,17.014.589a17.569,17.569,0,0,1,8.229.088c3.494,1.128,6.758,1.709,10.317.774a7.288,7.288,0,0,1,3.344-.27c4.64,1.1,9.137-.395,13.075-1.928,4.453-1.734,8.141-2.276,12.072.555,3.137-2.107,6.254-4.325,9.923-2.194,2.479,1.441,4.437.971,6.844-.068,3.53-1.523,6.917-3.789,11.207-2.855.884.193,2.025-.79,3.057-1.208,5.162-2.091,10.192-2.727,15.349.336,2.6,1.543,5.745,2.3,8.5.189,2.118-1.617,4.2-1.28,6.386-.6,4.866,1.513,10.115,1.547,14.783,3.986,1.242.649,3.317.215,4.856-.234,3.745-1.092,7.378-2.552,11.1-3.71a4.462,4.462,0,0,1,3.206,0c3.073,1.921,5.171.564,7.449-1.43,2.474-2.166,3.854-1.845,5.889.786,1.326,1.714,2.727,3.371,4.117,5.083a51.231,51.231,0,0,1,16.224-2.807c4.97-.024,9.929-1.072,14.906-1.527,3.169-.289,6.363-.458,9.544-.438,6.43.042,13-1.786,19.238,1.258.477.232,1.13.083,1.663.238,6.974,2.024,14.431-.126,21.384,2.412,1.005.366,2.511-.389,3.72-.806,5.587-1.926,11.175-3.665,17.247-2.589a4.652,4.652,0,0,0,3.251-.4c4.02-3.124,9.026-3.926,13.582-5.721,2.09-.824,5.052-1.37,6.9-.525a9.6,9.6,0,0,0,9.6-1.154c4.491-3.072,9.168-3.769,14.267-3.813,1.075-.009,2.488.045,3.161-.56,2.818-2.532,6.11-2.246,9.529-2.292,4.652-.062,9.528.119,13.864-1.207,2.9-.887,5.728-2.38,8.736-2.132a27.964,27.964,0,0,0,9.373-1.024c1.683-.425,3.658.193,5.49.427,3.092.395,6.293,1.585,9.232,1.119,4.132-.655,8.044-2.59,12.1-3.827,1.59-.485,3.475-1.123,4.936-.707,3,.854,4.864-.858,7.255-1.847a148.253,148.253,0,0,1,14.685-4.868c.967-.287,2.2.279,3.311.485,4.005.745,8.023,1.43,12,2.285,2.623.564,4.292,2.089,3.827,5.659,2.12-.754,3.761-1.439,5.461-1.922,3.277-.931,6.831-2.944,9.832-2.355a61.792,61.792,0,0,0,16.573.851c6.117-.433,12.236-.572,17.609,3.62,2.049,1.6,4.893.9,7.428-.43a11.732,11.732,0,0,1,5.747-1.405c5.348.273,10.607,1.877,16.065.246,1.346-.4,3.206.532,4.731,1.108,3.908,1.476,7.647,2.472,11.933.812a13.519,13.519,0,0,1,7.5-.288c2.682.623,4.626.558,6.6-1.476,1.111-1.147,2.827-2.667,4.119-2.539,5.114.5,10.722-.631,15.165,2.63,3.118,2.289,5.976,2.188,9.309,1.085,1.539-.51,3.894-1.292,4.755-.6,2.108,1.7,3.66.477,5.614.26,2.317-.258,4.775.454,7.136.925,1.244.247,2.372,1.063,3.616,1.3,7.643,1.454,15.119,3.661,23.086,3.525,4.993-.086,10.013,1.02,15.009,1.687a11.439,11.439,0,0,1,4.324,1.155,13.628,13.628,0,0,0,10.541,1.494c5.095-1.1,10.522-1.077,15.4-2.714,10.562-3.547,21.028-6.892,32.411-5.36a2.506,2.506,0,0,0,1.608-.266c3.88-2.655,8.3-1.681,11.929-.453,6.908,2.342,13.549,1.819,20.191.406,1.723,1.053,3.179,2.317,4.877,2.9,2.765.941,5.7,1.395,8.54,2.129,3.065.792,6.085,2.032,9.114-.212a2.552,2.552,0,0,1,2.135-.2c4.721,2.064,9.5,3.847,14.726,4.229.5.037.934.651,1.457.81a59.357,59.357,0,0,0,8.6,2.441c6.466.931,12.339-2.1,18.421-3.445,3.125-.69,6.2-1.6,9.255-2.582v-2.5c-3.057.98-6.13,1.892-9.255,2.582C1584.662,702.763,1578.789,705.8,1572.323,704.866Z" transform="translate(0.001 -653.958)" fill="#fff"/>
</svg>
